<svg width="284" height="310" viewBox="0 0 284 310" fill="none" xmlns="http://www.w3.org/2000/svg">
<g clip-path="url(#clip0_91_2)">
<path fill-rule="evenodd" clip-rule="evenodd" d="M185.914 46.1825H185.86H119.948L121.524 61.4825H184.346C183.425 74.8853 180.64 103.281 179.617 116.202L144.332 126.134V126.164L144.254 126.201L108.945 113.777L106.527 84.4325H123.834L125.059 100.214L144.285 107.382H144.332L163.528 100.498L165.502 76.7825H105.754C105.465 73.7148 101.751 33.8813 101.103 30.8825H187.46C186.976 35.9315 186.484 41.1182 185.914 46.1825ZM75.4861 0.282471L88.0177 139.114L144.254 153.282L200.639 138.83L213.186 0.282471H75.4861Z" fill="#E0E0E0"/>
</g>
<path d="M139.924 158.342C139.308 157.667 138.444 157.282 137.534 157.282H11.0101C10.1001 157.282 9.23552 157.667 8.62026 158.342C8.00499 159.017 7.70384 159.924 7.7848 160.834L19.1833 289.4C19.3031 290.743 20.2325 291.875 21.5213 292.247L73.3652 307.159C73.6534 307.24 73.9545 307.282 74.2525 307.282C74.5504 307.282 74.8515 307.24 75.1397 307.159L127.029 292.247C128.318 291.875 129.247 290.743 129.367 289.4L140.759 160.834C140.84 159.924 140.536 159.017 139.924 158.342ZM32.1751 245.339L54.8426 251.672V186.63H67.7955V271.413L32.1751 261.464V245.339ZM116.544 222.5L113.131 262.446L80.7483 271.413V256.41L102.606 250.361L103.416 238.132L80.7483 242.065V186.63H119.607L118.49 199.674H93.7012V225.761L116.544 222.5Z" fill="#E0E0E0"/>
<path d="M252.195 185.234L169.349 185.213L170.687 201.822L234.333 201.832L232.728 219.033H190.988L192.497 235.327H231.355L229.056 257.643L210.767 262.736L192.186 257.607L191.004 244.242H174.595L176.416 268.656L210.767 279.441L244.539 269.751L252.19 185.239L252.195 185.234ZM144.772 157.282H276.772L264.765 293.85L210.626 309.282L156.789 293.84L144.772 157.282Z" fill="#E0E0E0"/>
<defs>
<clipPath id="clip0_91_2">
<rect width="153" height="153" fill="white" transform="translate(65.7719 0.282471)"/>
</clipPath>
</defs>
</svg>
