<svg width="176" height="246" viewBox="0 0 176 246" fill="none" xmlns="http://www.w3.org/2000/svg">
<path d="M154.788 84.3429C163.575 79.0714 169.727 71.1643 173.242 61.5C176.757 51.8357 176.757 42.1714 174.121 32.5071C171.484 22.8429 165.333 14.9357 157.424 8.78571C149.515 2.63571 138.969 0 129.303 0H48.4547C37.9093 0 28.2427 3.51429 20.3337 8.78571C10.6671 14.9357 5.39436 23.7214 1.87922 32.5071C-0.757127 42.1714 -0.757124 52.7143 2.75801 61.5C6.27314 71.1643 12.4246 79.0714 21.2125 84.3429C15.061 88.7357 8.90949 94.0071 5.39436 101.036C1.87922 108.064 0.121658 115.093 0.121658 123C0.121658 130.907 1.87922 137.936 5.39436 144.964C8.90949 151.993 14.1822 157.264 21.2125 161.657C12.4246 166.929 6.27314 174.836 2.75801 184.5C-0.757124 194.164 -0.757127 203.829 1.87922 213.493C4.51557 223.157 10.6671 231.064 19.4549 237.214C27.3639 243.364 37.9093 246 47.576 246C59.8789 246 72.1819 240.729 81.8485 232.821C90.6363 224.036 95.909 212.614 95.909 200.314V158.143C104.697 166.05 116.121 170.443 127.545 170.443H128.424C138.969 170.443 148.636 166.929 156.545 161.657C164.454 155.507 170.606 147.6 173.242 137.936C175.878 128.271 175.878 118.607 172.363 108.943C169.727 97.5214 162.697 89.6143 154.788 84.3429ZM95.909 14.9357H128.424C132.818 14.9357 137.212 14.9357 140.727 16.6929C145.121 18.45 148.636 20.2071 151.272 23.7214C154.788 26.3571 156.545 29.8714 158.303 34.2643C160.06 38.6571 160.939 42.1714 160.939 46.5643C160.939 50.9571 160.06 55.35 158.303 58.8643C156.545 62.3786 153.909 65.8929 151.272 69.4071C147.757 72.0429 144.242 74.6786 140.727 76.4357C136.333 78.1929 131.939 78.1929 128.424 78.1929H95.909V14.9357ZM47.576 14.9357H80.0909V76.4357H47.576C39.6669 76.4357 31.7579 72.9214 26.4852 66.7714C20.3337 61.5 17.6973 53.5929 17.6973 45.6857C17.6973 37.7786 21.2125 29.8714 26.4852 24.6C31.7579 19.3286 39.6669 15.8143 47.576 14.9357ZM15.9398 123C15.9398 115.093 19.4549 107.186 25.6064 101.036C31.7579 94.8857 39.6669 92.25 48.4547 92.25H80.9697V153.75H48.4547C39.6669 153.75 31.7579 150.236 25.6064 144.964C19.4549 138.814 15.9398 130.907 15.9398 123ZM80.0909 199.436C80.0909 208.221 76.5758 216.129 70.4243 221.4C64.2728 227.55 56.3638 230.186 47.576 230.186C43.182 230.186 38.7881 230.186 35.273 228.429C30.8791 226.671 27.3639 224.914 24.7276 222.279C21.2125 219.643 19.4549 216.129 17.6973 211.736C15.9398 208.221 15.061 203.829 15.061 199.436C15.061 195.043 15.9398 190.65 17.6973 187.136C19.4549 183.621 22.0912 180.107 24.7276 176.593C28.2427 173.957 31.7579 171.321 35.273 169.564C39.6669 167.807 44.0608 167.807 47.576 167.807H80.0909V199.436ZM128.424 153.75H127.545C119.636 153.75 111.727 150.236 106.454 144.086C101.182 137.936 97.6666 130.907 97.6666 123C97.6666 115.093 101.182 107.186 106.454 101.914C111.727 95.7643 119.636 93.1286 127.545 92.25H128.424C132.818 92.25 137.212 92.25 140.727 94.0071C145.121 95.7643 148.636 97.5214 151.272 101.036C154.788 103.671 156.545 107.186 158.303 111.579C160.06 115.093 160.939 119.486 160.939 123.879C160.939 128.271 160.06 132.664 158.303 136.179C156.545 139.693 153.909 143.207 151.272 146.721C147.757 149.357 144.242 151.993 140.727 153.75H128.424Z" fill="#E0E0E0"/>
</svg>
