<svg width="261" height="261" viewBox="0 0 261 261" fill="none" xmlns="http://www.w3.org/2000/svg">
<g clip-path="url(#clip0_91_23)">
<path d="M117.623 208.883H136.504V115.735L117.623 109.441V208.883Z" fill="#E0E0E0"/>
<path d="M173.009 74.6148C172.799 87.2026 168.813 93.7062 160.421 93.7062C151.819 93.7062 143.008 89.0908 131.259 83.4262C115.315 75.8738 107.763 73.7759 97.902 73.7759C81.7481 73.7759 69.1604 87.2026 69.9993 110.28H84.0558C84.2656 95.5944 89.5102 89.0908 97.902 89.0908C106.294 89.0908 115.105 93.4965 126.014 98.9514C142.168 106.294 150.56 109.651 160.001 109.651C174.477 109.651 187.904 101.888 186.855 74.6148H173.009Z" fill="#E0E0E0"/>
<path fill-rule="evenodd" clip-rule="evenodd" d="M0.557617 130.42C0.557617 58.8804 58.8804 0.557617 130.42 0.557617C202.17 0.557617 260.283 58.8804 260.283 130.42C260.283 201.96 201.96 260.283 130.42 260.283C58.8804 260.283 0.557617 201.96 0.557617 130.42ZM8.9494 130.42C8.9494 197.554 63.4958 251.891 130.42 251.891C197.345 251.891 251.891 197.345 251.891 130.42C251.891 63.4958 197.345 8.9494 130.42 8.9494C63.4958 8.9494 8.9494 63.2861 8.9494 130.42Z" fill="#E0E0E0"/>
</g>
<defs>
<clipPath id="clip0_91_23">
<rect width="260.145" height="260.145" fill="white" transform="translate(0.557617 0.557617)"/>
</clipPath>
</defs>
</svg>
