<svg width="268" height="260" viewBox="0 0 268 260" fill="none" xmlns="http://www.w3.org/2000/svg">
<path d="M190.52 5.40632C190 5.24691 189.479 5.09097 188.956 4.93848C188.436 4.786 187.912 4.63699 187.389 4.49144C186.865 4.34589 186.342 4.2038 185.815 4.06518C185.291 3.92656 184.764 3.79141 184.237 3.65972C183.711 3.5315 183.184 3.40327 182.657 3.27852C182.13 3.15376 181.6 3.03593 181.07 2.9181C180.543 2.80028 180.013 2.68938 179.483 2.57849C178.953 2.46759 178.419 2.36363 177.889 2.25966C177.359 2.15916 176.826 2.05866 176.293 1.96163C175.763 1.86806 175.229 1.77449 174.696 1.68786C174.159 1.59775 173.626 1.51458 173.093 1.43488C172.559 1.3517 172.023 1.27546 171.486 1.19922C170.953 1.12645 170.416 1.05367 169.88 0.987827C169.343 0.921983 168.807 0.85614 168.27 0.797227C167.194 0.675935 166.121 0.568504 165.041 0.474936C163.965 0.381368 162.885 0.301662 161.806 0.239283C160.727 0.173438 159.647 0.121456 158.565 0.0798706C157.486 0.0417502 156.403 0.0174921 155.321 0.00709563C154.239 -0.00330084 153.153 -0.003302 152.071 0.0140254C150.986 0.0278874 149.904 0.0556106 148.819 0.0971964C147.733 0.142248 146.648 0.194231 145.563 0.263541C144.482 0.332851 143.397 0.412557 142.312 0.50959C141.228 0.603159 140.147 0.710589 139.062 0.831881C137.981 0.949708 136.897 1.08486 135.816 1.23041C134.735 1.37596 133.655 1.53537 132.574 1.70865C131.494 1.87846 130.417 2.06213 129.34 2.25966C128.26 2.4572 127.187 2.66512 126.11 2.88692C125.037 3.11217 123.965 3.34436 122.892 3.59388C121.822 3.83993 120.753 4.09984 119.684 4.37014C118.619 4.64392 117.553 4.92809 116.488 5.22265C115.426 5.52069 114.364 5.82912 113.306 6.14794C112.248 6.47023 111.193 6.80292 110.138 7.146C109.084 7.49255 108.036 7.84949 106.986 8.21684C105.938 8.58764 104.894 8.96885 103.854 9.36045C102.811 9.75205 101.774 10.1575 100.737 10.5734C99.7043 10.9892 98.6713 11.4155 97.6454 11.8556C96.6161 12.2957 95.5937 12.7462 94.5715 13.2106C93.5528 13.6715 92.5341 14.1463 91.5225 14.6315C90.5109 15.1166 89.5028 15.6157 88.4983 16.1216C87.4939 16.631 86.4964 17.1509 85.5025 17.6811C84.5052 18.2113 83.5149 18.7554 82.5316 19.3064C81.5449 19.8609 80.5652 20.4258 79.589 21.001C78.6129 21.5763 77.6437 22.162 76.6782 22.758C75.7126 23.3541 74.7541 23.9606 73.7991 24.5809C72.8441 25.1977 71.8962 25.825 70.9518 26.4661C70.0108 27.1037 69.0735 27.7553 68.1396 28.4102C67.2093 29.0721 66.2859 29.741 65.3662 30.4237C64.4464 31.1029 63.5337 31.796 62.6279 32.496C61.7187 33.1961 60.82 33.9065 59.9283 34.6273C59.0331 35.3481 58.1484 36.0794 57.2673 36.821C56.3862 37.5626 55.5155 38.3146 54.6484 39.0735C53.7847 39.8325 52.9246 40.6053 52.075 41.385C51.2219 42.1648 50.3793 42.9514 49.5437 43.752C48.7046 44.549 47.876 45.3565 47.0578 46.1743C46.2362 46.9922 45.4216 47.817 44.6175 48.6522C43.8134 49.4908 43.0163 50.3329 42.2296 51.1889C41.4395 52.0414 40.6599 52.9043 39.8872 53.7742C39.1146 54.6475 38.3524 55.5277 37.5972 56.4183C36.8454 57.3055 36.0973 58.203 35.363 59.111C34.6253 60.0155 33.898 60.9304 33.1777 61.8557C32.4609 62.7775 31.7511 63.7097 31.0518 64.6523C30.3524 65.5915 29.6635 66.541 28.9816 67.4975C28.2997 68.454 27.6317 69.4208 26.9707 70.3912C26.3097 71.365 25.6557 72.3457 25.0157 73.3368C24.6956 73.8324 24.379 74.328 24.0625 74.827C23.746 75.326 23.4363 75.8251 23.1233 76.3276C22.8137 76.83 22.5076 77.336 22.2015 77.842C21.8954 78.3479 21.5962 78.8574 21.2936 79.3668C20.9945 79.8762 20.6988 80.3891 20.4032 80.902C20.111 81.4184 19.8188 81.9312 19.5301 82.4511C19.2414 82.9674 18.9527 83.4872 18.671 84.0105C18.3858 84.5304 18.1075 85.0537 17.8293 85.5804C17.551 86.1072 17.2763 86.6339 17.0015 87.1607C16.7302 87.6909 16.4624 88.2211 16.1946 88.7548C15.9268 89.2885 15.6625 89.8222 15.4016 90.3593C15.1408 90.8965 14.8834 91.4336 14.6295 91.9742C14.3722 92.5148 14.1217 93.0555 13.8713 93.5995C13.6209 94.1436 13.374 94.6877 13.1305 95.2352C12.8871 95.7828 12.6471 96.3304 12.4105 96.8779C12.174 97.4255 11.9409 97.973 11.7148 98.5205C11.4851 99.0681 11.259 99.6156 11.0363 100.163C10.8136 100.711 10.5978 101.258 10.382 101.806C10.1696 102.353 9.95735 102.904 9.74847 103.452C9.54305 103.999 9.33763 104.547 9.13913 105.095C8.93717 105.642 8.74561 106.193 8.55057 106.741C8.35898 107.288 8.17085 107.836 7.98271 108.383C7.79804 108.931 7.61686 109.482 7.43564 110.029C7.25788 110.577 7.08358 111.125 6.91273 111.672C6.74189 112.22 6.57104 112.767 6.40711 113.315C6.24318 113.862 6.08271 114.41 5.92569 114.957C5.76868 115.505 5.61512 116.052 5.46153 116.597C5.31143 117.144 5.16478 117.692 5.0216 118.239C4.73519 119.331 4.46262 120.422 4.20387 121.514C3.94512 122.606 3.70017 123.694 3.46905 124.782C3.23793 125.87 3.02063 126.958 2.81714 128.043C2.61368 129.131 2.42397 130.212 2.24813 131.297C2.07226 132.378 1.91022 133.46 1.76197 134.537C1.61372 135.615 1.47931 136.693 1.35868 137.767C1.23806 138.841 1.12777 139.912 1.03477 140.983C0.938284 142.051 0.859081 143.118 0.790249 144.185C0.721383 145.249 0.66977 146.31 0.628528 147.37C0.587252 148.427 0.559806 149.484 0.542697 150.538C0.529046 151.591 0.525733 152.641 0.539671 153.688C0.550152 154.734 0.574428 155.777 0.612499 156.817C0.650571 157.857 0.702437 158.893 0.764606 159.922C0.82681 160.955 0.902808 161.984 0.992602 163.01C1.08236 164.032 1.18595 165.054 1.29984 166.07C1.41373 167.085 1.54142 168.097 1.6829 169.106C1.82089 170.111 1.97617 171.116 2.14175 172.114C2.30729 173.108 2.48321 174.103 2.67289 175.091C2.86602 176.078 3.06603 177.062 3.28327 178.04C3.49708 179.02 3.72461 179.991 3.96598 180.961C4.20385 181.928 4.45894 182.888 4.72091 183.844C4.98634 184.801 5.26207 185.75 5.5516 186.696C5.84112 187.643 6.14095 188.582 6.45454 189.514C6.76813 190.446 7.09202 191.371 7.42971 192.293C7.76736 193.212 8.11535 194.126 8.4771 195.034C8.83885 195.942 9.2109 196.843 9.59326 197.737C9.97562 198.632 10.3717 199.519 10.7782 200.399C11.188 201.279 11.6082 202.153 12.0387 203.019C12.4692 203.885 12.9134 204.745 13.368 205.597C13.8225 206.446 14.2873 207.292 14.7659 208.13C15.2445 208.966 15.7334 209.794 16.2326 210.615C16.7317 211.437 17.2447 212.251 17.7679 213.058C18.2911 213.862 18.8247 214.663 19.3685 215.453C19.9157 216.24 20.4733 217.023 21.0411 217.796C21.609 218.569 22.1871 219.334 22.7755 220.09C23.3674 220.849 23.9662 221.597 24.5786 222.336C25.191 223.074 25.8138 223.805 26.4503 224.526C27.0833 225.25 27.7266 225.96 28.3836 226.664C29.0372 227.367 29.7045 228.064 30.3822 228.75C31.0597 229.433 31.7477 230.112 32.4458 230.777C33.1439 231.443 33.8524 232.101 34.5746 232.749C35.2933 233.397 36.0223 234.035 36.765 234.662C37.5043 235.29 38.2573 235.91 39.0171 236.516C39.7803 237.123 40.5504 237.722 41.3342 238.311C42.118 238.897 42.9086 239.476 43.713 240.044C44.5139 240.609 45.3285 241.167 46.1499 241.711C46.9748 242.259 47.8064 242.792 48.6519 243.319C49.4938 243.842 50.3495 244.355 51.212 244.858C52.0744 245.36 52.9506 245.852 53.8336 246.334C54.7166 246.812 55.6099 247.284 56.5134 247.741C56.9651 247.97 57.4203 248.195 57.8755 248.417C58.3307 248.642 58.7892 248.86 59.2512 249.079C59.7132 249.294 60.1787 249.508 60.6441 249.72C61.1095 249.931 61.5783 250.139 62.0506 250.347C62.5194 250.552 62.9951 250.753 63.4708 250.954C63.9465 251.155 64.4255 251.349 64.9046 251.543C65.3871 251.737 65.8696 251.927 66.3555 252.114C66.838 252.302 67.3273 252.485 67.8167 252.669C68.3094 252.849 68.8021 253.026 69.2949 253.203C69.791 253.379 70.2872 253.549 70.7867 253.719C71.2863 253.889 71.7893 254.055 72.2922 254.218C72.7986 254.377 73.305 254.54 73.8148 254.696C74.3212 254.852 74.8344 255.005 75.3476 255.154C75.8608 255.306 76.3774 255.452 76.8975 255.594C77.4141 255.739 77.9341 255.878 78.4541 256.017C78.9741 256.152 79.494 256.283 80.0139 256.415C80.5373 256.543 81.0571 256.668 81.5804 256.789C82.1038 256.914 82.627 257.032 83.1502 257.146C83.6769 257.261 84.2001 257.372 84.7267 257.479C85.2533 257.586 85.7799 257.69 86.3064 257.791C86.8329 257.891 87.3594 257.988 87.8859 258.082C88.4158 258.176 88.9457 258.266 89.4721 258.352C90.002 258.439 90.5318 258.522 91.0616 258.602C91.5948 258.682 92.1245 258.758 92.6543 258.831C93.1874 258.903 93.7171 258.973 94.2502 259.039C94.7833 259.104 95.3164 259.167 95.8494 259.226C96.3824 259.285 96.9154 259.34 97.4519 259.392C97.9848 259.441 98.5212 259.489 99.0541 259.534C100.123 259.624 101.196 259.7 102.268 259.766C103.341 259.829 104.417 259.877 105.492 259.912C106.568 259.95 107.643 259.971 108.722 259.981C109.797 259.992 110.876 259.988 111.955 259.971C113.033 259.953 114.115 259.922 115.193 259.881C116.275 259.836 117.353 259.78 118.435 259.711C119.516 259.642 120.598 259.562 121.675 259.468C122.757 259.371 123.838 259.264 124.919 259.146C126 259.025 127.077 258.893 128.158 258.747C129.238 258.602 130.316 258.446 131.396 258.276C132.473 258.106 133.55 257.926 134.627 257.729C135.703 257.535 136.78 257.33 137.853 257.112C138.93 256.893 140.003 256.661 141.072 256.419C142.145 256.176 143.214 255.923 144.283 255.656C145.352 255.393 146.418 255.112 147.483 254.824C148.549 254.533 149.611 254.232 150.673 253.92C151.734 253.608 152.792 253.286 153.851 252.95C154.905 252.613 155.96 252.267 157.011 251.91C158.061 251.55 159.112 251.182 160.156 250.801C161.203 250.42 162.247 250.028 163.287 249.626C164.327 249.224 165.364 248.812 166.397 248.386C167.433 247.963 168.463 247.53 169.488 247.083C170.518 246.636 171.54 246.182 172.559 245.714C173.581 245.246 174.596 244.771 175.608 244.282C176.619 243.794 177.627 243.298 178.632 242.789C179.636 242.279 180.634 241.76 181.631 241.233C182.625 240.703 183.615 240.165 184.602 239.614C185.585 239.067 186.569 238.505 187.545 237.937C188.521 237.369 189.494 236.79 190.459 236.201C191.425 235.612 192.387 235.012 193.342 234.406C194.297 233.796 195.249 233.179 196.193 232.548C197.138 231.921 198.075 231.283 199.009 230.635C199.943 229.991 200.87 229.332 201.79 228.667C202.71 228.002 203.626 227.326 204.536 226.64C205.445 225.953 206.347 225.26 207.243 224.557C208.138 223.853 209.026 223.14 209.908 222.419C210.792 221.698 211.667 220.967 212.534 220.225C213.405 219.483 214.265 218.735 215.118 217.976C215.972 217.217 216.818 216.451 217.657 215.675C218.497 214.899 219.329 214.115 220.154 213.318C220.98 212.525 221.794 211.724 222.602 210.913C223.41 210.102 224.211 209.281 225.001 208.453C225.795 207.625 226.578 206.786 227.355 205.94C228.128 205.095 228.897 204.242 229.652 203.379C230.411 202.516 231.16 201.647 231.901 200.766C232.643 199.89 233.374 199.002 234.094 198.108C234.818 197.211 235.532 196.306 236.235 195.395C236.938 194.483 237.631 193.565 238.316 192.636C239.002 191.711 239.677 190.775 240.342 189.833C241.007 188.89 241.661 187.937 242.305 186.981C242.629 186.499 242.949 186.017 243.265 185.535C243.582 185.054 243.899 184.569 244.212 184.08C244.522 183.591 244.832 183.103 245.141 182.614C245.447 182.122 245.75 181.63 246.053 181.134C246.356 180.642 246.655 180.143 246.951 179.644C247.247 179.149 247.539 178.646 247.831 178.147C248.124 177.645 248.412 177.139 248.698 176.633C248.983 176.127 249.265 175.621 249.543 175.111C249.825 174.602 250.104 174.092 250.379 173.58C250.65 173.063 250.925 172.55 251.193 172.034C251.461 171.518 251.729 170.998 251.99 170.478C252.254 169.958 252.515 169.435 252.773 168.912C253.03 168.388 253.284 167.865 253.535 167.335C253.789 166.808 254.036 166.281 254.283 165.751C254.527 165.217 254.77 164.687 255.007 164.157C255.247 163.627 255.481 163.096 255.714 162.563C255.944 162.033 256.173 161.502 256.396 160.969C256.619 160.438 256.842 159.905 257.058 159.375C257.274 158.844 257.486 158.311 257.695 157.78C257.908 157.247 258.113 156.716 258.316 156.183C258.518 155.653 258.716 155.119 258.912 154.585C259.107 154.055 259.298 153.521 259.487 152.991C259.675 152.457 259.856 151.927 260.038 151.394C260.219 150.863 260.397 150.33 260.572 149.799C260.743 149.266 260.914 148.735 261.081 148.202C261.249 147.672 261.409 147.138 261.57 146.608C261.73 146.074 261.884 145.544 262.038 145.014C262.192 144.48 262.338 143.95 262.485 143.419C262.775 142.356 263.052 141.295 263.314 140.235C263.577 139.174 263.825 138.114 264.06 137.057C264.295 135.996 264.516 134.939 264.724 133.882C264.931 132.825 265.124 131.772 265.304 130.715C265.483 129.661 265.649 128.611 265.805 127.561C265.957 126.508 266.095 125.461 266.219 124.411C266.343 123.365 266.457 122.318 266.554 121.275C266.651 120.232 266.737 119.192 266.806 118.153C266.879 117.113 266.938 116.077 266.983 115.041C267.024 114.008 267.055 112.975 267.076 111.946C267.094 110.917 267.097 109.891 267.09 108.865C267.08 107.843 267.059 106.82 267.025 105.802C266.991 104.786 266.942 103.771 266.88 102.759C266.818 101.747 266.746 100.738 266.66 99.7335C266.574 98.725 266.474 97.7235 266.36 96.7254C266.25 95.7274 266.122 94.7328 265.985 93.7416C265.847 92.7505 265.695 91.7628 265.533 90.7821C265.371 89.7979 265.195 88.8172 265.006 87.8434C264.816 86.8696 264.616 85.8958 264.403 84.9324C264.189 83.9655 263.962 83.0021 263.724 82.0456C263.483 81.0857 263.234 80.1327 262.969 79.1866C262.707 78.237 262.432 77.2944 262.142 76.3553C261.856 75.4161 261.553 74.4804 261.243 73.5517C260.929 72.6229 260.605 71.7011 260.268 70.7828C259.93 69.8644 259.582 68.953 259.22 68.045C258.862 67.1371 258.487 66.236 258.104 65.3385C257.718 64.4444 257.322 63.5538 256.912 62.6701C256.506 61.7829 256.086 60.9061 255.652 60.0328C255.221 59.163 254.777 58.2966 254.322 57.4372C253.864 56.5777 253.399 55.7252 252.92 54.8762C252.442 54.0306 251.949 53.1919 251.45 52.3568C250.947 51.525 250.434 50.7003 249.907 49.8789C249.384 49.0611 248.847 48.2502 248.3 47.4462C247.752 46.6422 247.194 45.8451 246.623 45.055C246.055 44.2649 245.473 43.4851 244.881 42.7088C244.289 41.936 243.687 41.1702 243.071 40.4112C242.454 39.6523 241.832 38.9037 241.195 38.1621C240.558 37.4205 239.908 36.6858 239.251 35.9615C238.593 35.2338 237.922 34.5199 237.244 33.8095C236.563 33.1025 235.872 32.4025 235.17 31.7128C234.468 31.0232 233.756 30.344 233.033 29.6717C232.311 28.9994 231.578 28.3375 230.832 27.686C230.089 27.0344 229.332 26.3899 228.569 25.7557C227.805 25.1215 227.028 24.4977 226.24 23.8808C225.456 23.2675 224.658 22.661 223.854 22.0684C223.046 21.4723 222.231 20.8901 221.402 20.3149C220.574 19.7396 219.738 19.1747 218.889 18.6237C218.043 18.0692 217.184 17.5251 216.318 16.9949C215.451 16.4612 214.571 15.9414 213.685 15.432C212.798 14.9191 211.901 14.4201 210.994 13.9314C210.538 13.6888 210.083 13.4463 209.624 13.2106C209.165 12.9715 208.707 12.7358 208.241 12.5036C207.779 12.2715 207.313 12.0393 206.844 11.814C206.375 11.5853 205.906 11.3635 205.43 11.1417C204.958 10.9199 204.482 10.7016 204.006 10.4867C203.527 10.2719 203.048 10.057 202.565 9.84908C202.082 9.63769 201.596 9.43322 201.107 9.22876C200.621 9.02776 200.131 8.82676 199.638 8.62923C199.145 8.4317 198.652 8.23763 198.153 8.04356C197.656 7.85296 197.157 7.66583 196.657 7.47869C196.154 7.29502 195.65 7.11135 195.144 6.93461C194.637 6.7544 194.127 6.57766 193.617 6.40785C193.104 6.23458 192.591 6.06477 192.077 5.89843C191.56 5.73208 191.04 5.5692 190.52 5.40632ZM25.2982 98.7908C25.7581 97.7581 26.2319 96.7323 26.7161 95.7135C27.2003 94.6946 27.6949 93.6827 28.2 92.6777C28.7086 91.6727 29.2241 90.6747 29.7535 89.6835C30.283 88.6959 30.8229 87.7117 31.3732 86.7379C31.9236 85.7641 32.4844 84.7972 33.0556 83.8373C33.6303 82.8773 34.212 81.9243 34.8041 80.9817C35.3962 80.0356 35.9988 79.0999 36.6119 78.1712C37.2249 77.2459 37.845 76.3241 38.4789 75.4127C39.1094 74.5012 39.7538 73.5967 40.4052 72.7026C41.0566 71.8051 41.715 70.9179 42.3873 70.0377C43.0562 69.1609 43.7355 68.2911 44.4218 67.4282C45.1115 66.5653 45.8083 65.7128 46.5155 64.8672C47.2193 64.0216 47.9369 63.183 48.6582 62.3582C49.3829 61.5299 50.1145 60.7086 50.8533 59.9011C51.5919 59.0902 52.3411 58.2897 53.0972 57.4961C53.8534 56.706 54.6166 55.9228 55.3867 55.1465C55.31 56.0036 55.2333 56.8596 55.1566 57.7144C55.0799 58.5692 55.0032 59.4252 54.9265 60.2823C54.8497 61.1372 54.773 61.9931 54.6963 62.8503C54.6196 63.7051 54.5429 64.5599 54.4662 65.4147C54.3894 66.2695 54.3127 67.1255 54.236 67.9827C54.1593 68.8375 54.0826 69.6923 54.0059 70.5471C53.9291 71.4019 53.8524 72.2568 53.7757 73.1116C53.6967 73.9664 53.6188 74.8224 53.5421 75.6795C53.4654 76.5343 53.3887 77.3891 53.3119 78.244C53.2352 79.0988 53.1585 79.9536 53.0818 80.8084C53.0051 81.6632 52.9283 82.5181 52.8516 83.3729C52.7749 84.2254 52.6981 85.0791 52.6214 85.9339C52.5447 86.7887 52.4668 87.6435 52.3878 88.4983C52.3111 89.3532 52.2343 90.208 52.1576 91.0628C52.0809 91.9153 52.0041 92.769 51.9274 93.6238C51.8507 94.4786 51.774 95.3323 51.6972 96.1848C51.6205 97.0396 51.5426 97.8944 51.4636 98.7493C51.3868 99.6018 51.3101 100.455 51.2334 101.31C51.1566 102.163 51.0799 103.016 51.0032 103.871C50.9264 104.724 50.8486 105.577 50.7695 106.432C50.6928 107.285 50.616 108.137 50.5393 108.99C50.4626 109.845 50.3858 110.698 50.3091 111.551C50.2323 112.403 50.1545 113.257 50.0754 114.112C49.9987 114.964 49.9219 115.817 49.8452 116.669C49.7684 117.522 49.6917 118.374 49.615 119.227C49.5359 120.079 49.458 120.932 49.3813 121.784C49.3045 122.637 49.2278 123.489 49.151 124.342C49.072 125.194 48.9941 126.047 48.9173 126.899C48.8406 127.752 48.7638 128.604 48.6871 129.457C48.608 130.309 48.5301 131.161 48.4534 132.011C48.3766 132.864 48.2999 133.716 48.2231 134.569C48.1441 135.419 48.0661 136.27 47.9894 137.123C47.9127 137.975 47.8359 138.826 47.7591 139.677C47.6801 140.529 47.6022 141.381 47.5254 142.231C47.4486 143.081 47.3707 143.932 47.2917 144.785C47.2149 145.635 47.1381 146.485 47.0614 147.335C46.9846 148.188 46.9067 149.039 46.8276 149.889C46.7509 150.74 46.6741 151.59 46.5973 152.44C46.5183 153.29 46.4403 154.14 46.3636 154.991C46.2868 155.841 46.2089 156.691 46.1298 157.541C46.053 158.391 45.9751 159.242 45.896 160.092C45.8193 160.942 45.7425 161.792 45.6657 162.642C45.5866 163.49 45.5087 164.339 45.4319 165.19C45.3552 166.04 45.2772 166.889 45.1981 167.737C45.1214 168.587 45.0434 169.436 44.9643 170.284C44.8876 171.134 44.8096 171.983 44.7306 172.831C44.6538 173.679 44.577 174.528 44.5002 175.378C44.4211 176.226 44.3432 177.074 44.2664 177.922C44.1873 178.77 44.1093 179.618 44.0325 180.465C43.9535 181.313 43.8755 182.161 43.7987 183.009C43.7196 183.857 43.6417 184.705 43.5649 185.553C43.4858 186.401 43.4078 187.249 43.3311 188.096C43.2519 188.942 43.174 189.789 43.0972 190.637C43.0181 191.485 42.9401 192.331 42.8633 193.177C42.7842 194.025 42.7063 194.872 42.6294 195.717C42.5503 196.563 42.4724 197.409 42.3956 198.257C42.3165 199.103 42.2373 199.948 42.1582 200.794C42.0814 201.64 42.0034 202.485 41.9243 203.331C41.8475 204.176 41.7695 205.022 41.6904 205.868C41.6113 206.713 41.5333 207.559 41.4565 208.404C41.3774 209.25 41.2994 210.095 41.2226 210.941C41.1435 211.787 41.0644 212.631 40.9852 213.474C40.9084 214.32 40.8304 215.164 40.7513 216.008C40.6722 216.853 40.5942 217.698 40.5173 218.541C40.0807 218.097 39.651 217.65 39.2281 217.2C38.8018 216.746 38.3823 216.288 37.9663 215.831C37.5537 215.37 37.1445 214.906 36.7387 214.434C36.333 213.966 35.9341 213.495 35.5387 213.017C35.1432 212.542 34.7546 212.06 34.3694 211.575C33.9877 211.09 33.606 210.601 33.2346 210.109C32.8597 209.617 32.4917 209.122 32.1271 208.623C31.7625 208.12 31.4048 207.618 31.0505 207.108C30.6963 206.602 30.3488 206.089 30.0049 205.576C29.6609 205.06 29.3238 204.54 28.9901 204.017C28.6599 203.497 28.3296 202.97 28.0096 202.44C27.6863 201.91 27.3697 201.376 27.0566 200.839C26.7471 200.305 26.4408 199.765 26.1381 199.221C25.8387 198.677 25.5428 198.129 25.2503 197.578C24.9613 197.031 24.6757 196.476 24.397 195.918C24.1183 195.36 23.843 194.802 23.5746 194.237C23.3062 193.672 23.0412 193.108 22.7831 192.536C22.525 191.967 22.2738 191.396 22.026 190.817C21.7782 190.242 21.5373 189.663 21.2998 189.081C21.0658 188.498 20.8352 187.913 20.608 187.324C20.3844 186.738 20.1641 186.145 19.9507 185.553C19.7338 184.957 19.5273 184.361 19.3242 183.761C19.1212 183.162 18.9215 182.559 18.7322 181.952C18.5394 181.349 18.3536 180.739 18.1711 180.129C17.9921 179.519 17.8166 178.906 17.6479 178.289C17.4792 177.672 17.314 177.055 17.1557 176.435C16.9973 175.815 16.8459 175.191 16.6978 174.564C16.5533 173.936 16.4121 173.309 16.2744 172.679C16.1402 172.048 16.0128 171.414 15.8889 170.779C15.765 170.145 15.6445 169.508 15.5344 168.866C15.4208 168.225 15.3141 167.584 15.2143 166.94C15.1145 166.295 15.0182 165.651 14.9287 164.999C14.8426 164.351 14.7566 163.703 14.6809 163.048C14.6052 162.396 14.533 161.741 14.4677 161.086C14.4023 160.428 14.3438 159.77 14.2888 159.111C14.2338 158.449 14.1891 157.787 14.1444 157.122C14.1032 156.46 14.0689 155.795 14.038 155.126C14.0106 154.457 13.9866 153.788 13.9695 153.119C13.949 152.447 13.9388 151.775 13.932 151.102C13.9287 150.427 13.9289 149.751 13.9359 149.075C13.9395 148.399 13.9535 147.72 13.9709 147.041C13.9917 146.358 14.016 145.679 14.0472 144.996C14.0784 144.314 14.1165 143.627 14.1581 142.945C14.1996 142.258 14.2515 141.572 14.3068 140.883C14.3622 140.197 14.4244 139.507 14.4901 138.817C14.5593 138.128 14.6353 137.438 14.7148 136.745C14.7943 136.052 14.8807 135.359 14.9741 134.666C15.0674 133.972 15.1676 133.276 15.2713 132.579C15.3784 131.883 15.489 131.186 15.6064 130.49C15.7274 129.793 15.8518 129.093 15.9831 128.393C16.1144 127.696 16.2491 126.996 16.3942 126.293C16.5359 125.593 16.6879 124.893 16.8433 124.189C16.9988 123.489 17.1647 122.786 17.3339 122.082C17.5032 121.379 17.676 120.675 17.8591 119.972C18.0422 119.268 18.2322 118.565 18.4257 117.861C18.6226 117.154 18.823 116.451 19.0303 115.744C19.2411 115.041 19.4553 114.334 19.6764 113.627C19.8975 112.92 20.1255 112.216 20.3605 111.509C20.5954 110.802 20.8338 110.095 21.0826 109.388C21.3313 108.681 21.5836 107.974 21.8462 107.267C22.1053 106.56 22.3749 105.857 22.6478 105.15C22.9243 104.443 23.2042 103.736 23.491 103.029C23.7778 102.322 24.0749 101.615 24.3756 100.912C24.6762 100.205 24.9838 99.4978 25.2982 98.7908ZM82.628 242.973C81.9657 242.789 81.3035 242.598 80.6515 242.401C79.9961 242.207 79.3441 242.002 78.6989 241.794C78.0503 241.586 77.4085 241.375 76.7702 241.153C76.1353 240.935 75.5003 240.71 74.8722 240.481C74.2441 240.249 73.6194 240.013 72.9981 239.77C72.3768 239.528 71.7623 239.282 71.1513 239.029C70.5403 238.776 69.9326 238.516 69.3284 238.253C68.7276 237.989 68.1303 237.722 67.5363 237.445C66.9423 237.171 66.3517 236.891 65.768 236.606C65.1844 236.322 64.604 236.031 64.0272 235.737C63.4503 235.442 62.8802 235.141 62.3136 234.836C61.747 234.531 61.1838 234.219 60.624 233.903C60.0676 233.588 59.5147 233.266 58.9651 232.94C58.4156 232.614 57.8695 232.285 57.3302 231.949C56.791 231.613 56.2551 231.273 55.7262 230.93C55.1937 230.583 54.6681 230.233 54.146 229.88C54.547 229.416 54.948 228.95 55.349 228.483C55.75 228.019 56.151 227.555 56.5521 227.09C56.9531 226.626 57.3541 226.16 57.7551 225.694C58.1561 225.229 58.556 224.765 58.9547 224.3C59.3557 223.836 59.7567 223.371 60.1577 222.904C60.5587 222.439 60.9598 221.975 61.3608 221.511C61.7618 221.046 62.1628 220.581 62.5638 220.114C62.9648 219.65 63.3658 219.185 63.7669 218.721C64.1679 218.257 64.5689 217.792 64.9699 217.328C65.3709 216.861 65.7719 216.396 66.1729 215.931C66.5717 215.467 66.9715 215.003 67.3726 214.538C67.7736 214.074 68.1746 213.609 68.5756 213.145C68.9766 212.678 69.3776 212.213 69.7786 211.748C70.1797 211.284 70.5807 210.82 70.9817 210.355C71.3827 209.891 71.7837 209.427 72.1848 208.962C72.5858 208.498 72.9868 208.033 73.3878 207.569C73.7888 207.105 74.1899 206.64 74.5909 206.176C74.9919 205.709 75.3929 205.244 75.7939 204.779C76.1949 204.315 76.5948 203.851 76.9935 203.386C77.3945 202.922 77.7956 202.457 78.1966 201.993C78.5976 201.529 78.9986 201.064 79.3996 200.6C79.8007 200.136 80.2017 199.671 80.6027 199.207C81.0037 198.742 81.4047 198.278 81.8058 197.814C82.2068 197.352 82.6078 196.888 83.0089 196.424C83.4099 195.96 83.8109 195.495 84.2119 195.031C84.6129 194.567 85.014 194.102 85.415 193.638C85.816 193.173 86.217 192.709 86.618 192.245C87.0191 191.783 87.4201 191.319 87.8211 190.855C88.2222 190.391 88.6232 189.926 89.0242 189.462C89.4252 188.998 89.8263 188.534 90.2273 188.072C90.6283 187.608 91.0293 187.143 91.4303 186.679C91.8314 186.215 92.2324 185.752 92.6335 185.289C93.0345 184.825 93.4355 184.361 93.8365 183.896C94.2376 183.434 94.6386 182.971 95.0396 182.507C95.4406 182.042 95.8417 181.579 96.2427 181.117C96.6437 180.653 97.0447 180.188 97.4458 179.724C97.8468 179.262 98.2478 178.799 98.6489 178.334C99.0499 177.872 99.4509 177.409 99.852 176.945C100.253 176.482 100.654 176.019 101.055 175.555C101.456 175.093 101.857 174.63 102.258 174.165C102.659 173.703 103.06 173.24 103.461 172.776C103.862 172.314 104.263 171.85 104.664 171.386C105.065 170.924 105.466 170.462 105.867 170C106.268 169.535 106.67 169.072 107.071 168.61C107.472 168.148 107.873 167.685 108.274 167.22C108.675 166.758 109.076 166.296 109.477 165.834C109.878 165.37 110.279 164.907 110.68 164.445C111.081 163.982 111.482 163.52 111.883 163.058C112.284 162.596 112.685 162.133 113.086 161.669C113.487 161.207 113.888 160.745 114.289 160.282C114.69 159.82 115.091 159.358 115.492 158.896C115.893 158.434 116.294 157.972 116.696 157.51C117.099 157.046 117.501 156.582 117.902 156.12C118.303 155.658 118.704 155.196 119.105 154.734C119.506 154.272 119.907 153.81 120.308 153.348C120.709 152.886 121.11 152.424 121.511 151.962C121.913 151.502 122.314 151.041 122.715 150.579C123.116 150.117 123.517 149.655 123.918 149.193C124.319 148.731 124.72 148.269 125.121 147.807C125.524 147.345 125.926 146.883 126.327 146.421C126.729 145.961 127.13 145.5 127.531 145.038C127.932 144.576 128.333 144.114 128.734 143.652C129.135 143.192 129.536 142.731 129.937 142.269C130.338 141.807 130.739 141.346 131.14 140.886C131.09 141.429 131.04 141.972 130.99 142.515C130.941 143.058 130.89 143.602 130.837 144.147C130.787 144.69 130.738 145.233 130.688 145.776C130.638 146.319 130.587 146.863 130.535 147.408C130.485 147.951 130.435 148.494 130.385 149.037C130.333 149.58 130.282 150.123 130.232 150.666C130.182 151.209 130.132 151.752 130.082 152.295C130.03 152.837 129.979 153.382 129.929 153.927C129.879 154.47 129.828 155.013 129.776 155.556C129.726 156.098 129.676 156.641 129.626 157.184C129.574 157.727 129.523 158.269 129.473 158.81C129.423 159.353 129.374 159.896 129.324 160.438C129.271 160.981 129.22 161.524 129.171 162.067C129.121 162.61 129.07 163.153 129.017 163.696C128.968 164.239 128.918 164.781 128.868 165.321C128.816 165.864 128.765 166.407 128.715 166.95C128.665 167.493 128.614 168.036 128.562 168.579C128.512 169.119 128.462 169.661 128.412 170.204C128.36 170.747 128.309 171.289 128.259 171.829C128.209 172.372 128.158 172.915 128.106 173.458C128.056 173.999 128.006 174.541 127.956 175.084C127.904 175.627 127.853 176.168 127.803 176.709C127.751 177.252 127.7 177.794 127.65 178.334C127.6 178.877 127.549 179.419 127.497 179.96C127.447 180.502 127.397 181.044 127.347 181.585C127.295 182.128 127.244 182.67 127.194 183.21C127.144 183.753 127.093 184.295 127.041 184.835C126.991 185.378 126.94 185.92 126.887 186.461C126.838 187.004 126.788 187.545 126.738 188.086C126.686 188.627 126.635 189.168 126.585 189.711C126.532 190.252 126.481 190.793 126.432 191.333C126.382 191.876 126.331 192.418 126.278 192.959C126.228 193.499 126.179 194.04 126.129 194.58C126.076 195.123 126.025 195.665 125.976 196.206C125.923 196.746 125.872 197.287 125.822 197.828C125.772 198.371 125.721 198.912 125.669 199.453C125.619 199.994 125.568 200.534 125.516 201.075C125.466 201.615 125.415 202.156 125.363 202.697C125.313 203.24 125.263 203.781 125.213 204.322C125.161 204.863 125.11 205.403 125.06 205.944C125.008 206.484 124.957 207.025 124.907 207.566C124.857 208.106 124.806 208.647 124.754 209.187C124.704 209.728 124.653 210.269 124.601 210.809C124.551 211.35 124.5 211.891 124.447 212.431C124.397 212.972 124.348 213.512 124.298 214.053C124.245 214.594 124.194 215.134 124.144 215.675C124.092 216.215 124.041 216.756 123.991 217.297C123.939 217.837 123.888 218.378 123.838 218.919C123.786 219.459 123.735 220 123.685 220.54C123.635 221.081 123.584 221.62 123.532 222.159C123.482 222.699 123.431 223.24 123.379 223.781C123.329 224.321 123.278 224.862 123.225 225.402C123.175 225.943 123.124 226.484 123.072 227.024C123.022 227.563 122.971 228.102 122.919 228.643C122.869 229.183 122.819 229.724 122.769 230.265C122.717 230.805 122.666 231.345 122.616 231.883C122.564 232.424 122.513 232.964 122.463 233.505C122.411 234.045 122.36 234.585 122.31 235.123C122.258 235.664 122.206 236.204 122.157 236.745C122.104 237.286 122.053 237.825 122.003 238.363C121.953 238.904 121.902 239.445 121.85 239.985C121.8 240.526 121.749 241.065 121.697 241.604C121.647 242.144 121.596 242.685 121.544 243.225C121.494 243.766 121.443 244.306 121.391 244.844C121.352 245.461 121.385 246.043 121.457 246.604C120.638 246.667 119.815 246.719 118.997 246.764C118.178 246.805 117.359 246.843 116.539 246.871C115.72 246.899 114.901 246.92 114.082 246.93C113.262 246.94 112.447 246.944 111.627 246.937C110.811 246.934 109.995 246.92 109.175 246.895C108.359 246.875 107.543 246.843 106.73 246.805C105.914 246.764 105.101 246.719 104.288 246.66C103.471 246.604 102.661 246.539 101.848 246.466C101.038 246.393 100.225 246.31 99.4186 246.216C98.6086 246.126 97.7986 246.026 96.9919 245.918C96.1852 245.807 95.3785 245.689 94.5751 245.561C93.7717 245.436 92.9682 245.298 92.1646 245.156C91.3645 245.01 90.5643 244.854 89.7675 244.691C88.9672 244.529 88.1702 244.355 87.3767 244.175C86.5796 243.991 85.7894 243.801 84.9957 243.603C84.2054 243.402 83.415 243.191 82.628 242.973ZM172.612 82.2501C173.448 82.4511 174.279 82.6417 175.09 82.8253C175.901 83.0055 176.691 83.1788 177.453 83.3417C178.216 83.5046 178.95 83.6571 179.64 83.7957C180.332 83.9378 180.984 84.066 181.58 84.1804C182.775 84.4125 183.762 84.5962 184.451 84.721C185.137 84.8423 185.528 84.9081 185.528 84.9081C186.297 85.0398 187.026 85.0121 187.696 84.8596C188.368 84.7106 188.981 84.4368 189.527 84.0729C190.07 83.709 190.546 83.2585 190.938 82.7526C191.331 82.2466 191.64 81.6887 191.855 81.1099C192.071 80.5312 192.189 79.9351 192.201 79.3529C192.212 78.7707 192.117 78.2058 191.901 77.6895C191.681 77.1731 191.345 76.7053 190.87 76.3241C190.4 75.9429 189.795 75.6483 189.04 75.4716C189.04 75.4716 187.903 75.229 186.015 74.8131C185.544 74.7092 185.027 74.5913 184.466 74.4666C183.908 74.3418 183.309 74.2067 182.675 74.0646C182.04 73.9225 181.375 73.77 180.678 73.6071C179.982 73.4477 179.254 73.2814 178.509 73.1046C177.761 72.9314 176.991 72.7512 176.208 72.564C175.421 72.3769 174.621 72.1828 173.81 71.9888C172.999 71.7912 172.177 71.5902 171.352 71.3823C170.527 71.1778 169.699 70.9699 168.874 70.7585C168.046 70.5471 167.221 70.3357 166.406 70.1209C165.591 69.906 164.783 69.6877 163.99 69.4728C163.199 69.2545 162.422 69.0396 161.663 68.8213C160.907 68.6064 160.169 68.3916 159.461 68.1767C158.795 67.9757 158.102 67.7609 157.391 67.5356C156.676 67.3069 155.944 67.0712 155.198 66.8217C154.453 66.5757 153.693 66.3192 152.923 66.0558C152.153 65.7925 151.375 65.5256 150.595 65.2518C149.818 64.9781 149.033 64.7008 148.256 64.4236C147.475 64.1464 146.702 63.8656 145.935 63.5884C145.168 63.3077 144.408 63.0305 143.665 62.7567C142.923 62.4829 142.197 62.2126 141.489 61.9492C140.785 61.6859 140.098 61.4294 139.438 61.1799C138.779 60.9304 138.147 60.6913 137.547 60.4625C136.946 60.2338 136.377 60.019 135.85 59.8145C135.319 59.61 134.829 59.4229 134.382 59.2496C132.594 58.56 131.514 58.1303 131.514 58.1303C130.803 57.8669 130.107 57.7768 129.44 57.8253C128.774 57.8773 128.136 58.0644 127.551 58.359C126.97 58.6536 126.434 59.0521 125.972 59.5199C125.507 59.9878 125.115 60.5215 124.809 61.0933C124.504 61.6616 124.285 62.2646 124.177 62.8641C124.069 63.4637 124.068 64.0597 124.194 64.6177C124.321 65.1756 124.575 65.6989 124.974 66.1459C125.372 66.593 125.919 66.9638 126.627 67.2272C126.627 67.2272 126.953 67.3762 127.533 67.6326C128.11 67.8891 128.94 68.253 129.947 68.6827C130.45 68.8975 130.999 69.1297 131.582 69.3723C132.165 69.6149 132.783 69.8679 133.426 70.1278C134.071 70.3877 134.738 70.6545 135.425 70.9214C136.112 71.1882 136.813 71.4585 137.525 71.7219C137.475 72.2764 137.424 72.8309 137.372 73.3853C137.322 73.9375 137.271 74.4908 137.219 75.0453C137.169 75.5998 137.119 76.1543 137.066 76.7088C137.017 77.2632 136.966 77.8177 136.914 78.3722C136.864 78.9267 136.813 79.4811 136.761 80.0356C136.711 80.5878 136.66 81.1411 136.608 81.6956C136.558 82.2501 136.507 82.8046 136.455 83.359C136.406 83.9112 136.355 84.4645 136.303 85.019C136.253 85.5735 136.202 86.128 136.15 86.6824C136.1 87.2346 136.049 87.7879 135.997 88.3424C135.947 88.8969 135.896 89.4502 135.844 90.0024C135.795 90.5569 135.744 91.1102 135.692 91.6623C135.642 92.2168 135.591 92.7713 135.539 93.3258C135.489 93.8779 135.438 94.4313 135.386 94.9857C135.336 95.5379 135.285 96.0912 135.233 96.6457C135.183 97.1979 135.132 97.7512 135.08 98.3057C135.031 98.8578 134.98 99.4112 134.928 99.9657C134.878 100.518 134.827 101.07 134.775 101.622C134.725 102.177 134.674 102.73 134.622 103.282C134.572 103.837 134.521 104.39 134.469 104.942C134.419 105.494 134.368 106.046 134.316 106.599C134.267 107.153 134.216 107.706 134.164 108.259C134.111 108.811 134.061 109.364 134.011 109.919C133.959 110.471 133.908 111.023 133.858 111.575C133.806 112.127 133.755 112.679 133.705 113.232C133.653 113.784 133.602 114.337 133.552 114.892C133.5 115.444 133.449 115.996 133.4 116.548C133.347 117.1 133.295 117.652 133.243 118.205C133.193 118.757 133.143 119.309 133.09 119.861C133.041 120.413 132.99 120.965 132.938 121.518C132.888 122.07 132.837 122.622 132.785 123.174C132.735 123.726 132.684 124.278 132.632 124.831C132.035 125.526 131.438 126.223 130.841 126.92C130.247 127.618 129.651 128.316 129.054 129.013C128.457 129.709 127.86 130.405 127.263 131.103C126.669 131.801 126.073 132.498 125.476 133.196C124.879 133.894 124.283 134.592 123.689 135.289C123.092 135.987 122.495 136.685 121.898 137.383C121.301 138.08 120.705 138.778 120.111 139.476C119.514 140.176 118.917 140.875 118.32 141.572C117.725 142.27 117.13 142.968 116.533 143.665C115.936 144.366 115.34 145.064 114.745 145.762C114.149 146.462 113.552 147.161 112.955 147.859C112.36 148.556 111.764 149.255 111.167 149.955C110.571 150.655 109.975 151.354 109.38 152.052C108.783 152.752 108.186 153.452 107.59 154.152C106.995 154.85 106.399 155.549 105.802 156.249C105.208 156.949 104.612 157.649 104.015 158.349C103.418 159.046 102.823 159.745 102.228 160.445C101.631 161.145 101.035 161.845 100.441 162.545C99.8438 163.245 99.247 163.946 98.6501 164.646C98.0555 165.346 97.4598 166.046 96.8629 166.746C96.2683 167.448 95.6726 168.149 95.0757 168.849C94.4811 169.549 93.8854 170.249 93.2885 170.949C92.6939 171.649 92.0982 172.35 91.5013 173.053C90.9068 173.753 90.311 174.453 89.7141 175.153C89.1173 175.855 88.5215 176.556 87.927 177.256C87.3301 177.959 86.7344 178.66 86.1398 179.36C85.5429 180.062 84.9472 180.764 84.3526 181.464C83.7558 182.166 83.16 182.867 82.5655 183.567C81.9686 184.269 81.3729 184.972 80.7783 185.674C80.1815 186.374 79.5857 187.075 78.9912 187.778C78.3943 188.48 77.7986 189.181 77.204 189.881C76.6071 190.584 76.0114 191.286 75.4169 191.988C75.4998 191.293 75.5827 190.599 75.6657 189.905C75.7486 189.21 75.8304 188.515 75.911 187.819C75.994 187.124 76.0769 186.428 76.1598 185.733C76.2427 185.038 76.3257 184.342 76.4086 183.647C76.4892 182.951 76.571 182.256 76.6539 181.561C76.7369 180.865 76.8198 180.17 76.9027 179.474C76.9856 178.779 77.0674 178.084 77.148 177.388C77.231 176.693 77.3139 175.996 77.3968 175.298C77.4797 174.603 77.5627 173.908 77.6456 173.212C77.7262 172.517 77.808 171.82 77.8909 171.123C77.9738 170.427 78.0567 169.732 78.1397 169.036C78.2203 168.339 78.302 167.642 78.3849 166.947C78.4679 166.251 78.5508 165.555 78.6337 164.857C78.7143 164.162 78.7961 163.465 78.879 162.767C78.9619 162.07 79.0448 161.373 79.1277 160.678C79.2083 159.98 79.2901 159.283 79.373 158.588C79.4559 157.89 79.5389 157.192 79.6218 156.495C79.7024 155.799 79.7841 155.103 79.867 154.405C79.95 153.707 80.0317 153.01 80.1123 152.312C80.1952 151.614 80.2781 150.916 80.361 150.219C80.4417 149.523 80.5234 148.827 80.6063 148.129C80.6892 147.431 80.7721 146.734 80.855 146.036C80.9356 145.338 81.0174 144.64 81.1003 143.943C81.1832 143.245 81.2649 142.547 81.3455 141.85C81.4284 141.15 81.5113 140.451 81.5942 139.753C81.6748 139.055 81.7566 138.357 81.8395 137.66C81.9224 136.962 82.0041 136.263 82.0847 135.563C82.1676 134.865 82.2505 134.168 82.3334 133.47C82.414 132.772 82.4958 132.073 82.5787 131.373C82.6593 130.676 82.741 129.977 82.8239 129.277C82.9068 128.579 82.9885 127.881 83.0691 127.184C83.152 126.484 83.2349 125.785 83.3178 125.087C83.3984 124.387 83.4801 123.688 83.5631 122.99C83.6436 122.29 83.7254 121.59 83.8082 120.89C83.8911 120.193 83.9729 119.494 84.0535 118.794C84.1363 118.094 84.2181 117.395 84.2987 116.697C84.3816 115.997 84.4645 115.297 84.5473 114.597C84.6279 113.897 84.7097 113.198 84.7926 112.5C84.8731 111.8 84.9549 111.1 85.0378 110.4C85.1183 109.7 85.2001 109 85.2829 108.3C85.3658 107.6 85.4476 106.9 85.5281 106.2C85.611 105.5 85.6927 104.8 85.7733 104.1C85.8562 103.4 85.9379 102.7 86.0185 102C86.1014 101.3 86.1831 100.6 86.2637 99.8998C86.3466 99.1998 86.4295 98.4998 86.5123 97.7997C86.5929 97.0997 86.6747 96.3997 86.7575 95.6996C86.8381 94.9996 86.9198 94.2984 87.0027 93.5961C87.0833 92.8961 87.165 92.196 87.2479 91.496C87.3285 90.796 87.4102 90.0948 87.493 89.3924C87.5736 88.6924 87.6553 87.9924 87.7382 87.2924C87.8188 86.59 87.9005 85.8888 87.9834 85.1888C88.064 84.4888 88.1457 83.7876 88.2285 83.0853C88.3091 82.3852 88.3908 81.684 88.4737 80.9817C88.5543 80.2817 88.636 79.5805 88.7188 78.8782C88.7994 78.1781 88.8812 77.4769 88.964 76.7746C89.0446 76.0746 89.1263 75.3734 89.2092 74.671C89.2897 73.971 89.3715 73.2698 89.4543 72.5675C89.5349 71.8652 89.6166 71.164 89.6995 70.4639C89.78 69.7616 89.8617 69.0593 89.9446 68.3569C90.0252 67.6569 90.1069 66.9557 90.1897 66.2534C90.2703 65.551 90.3509 64.8487 90.4314 64.1464C90.5143 63.4463 90.596 62.7451 90.6766 62.0428C90.7594 61.3405 90.8411 60.6381 90.9217 59.9358C91.0045 59.2334 91.0863 58.5323 91.1668 57.8322C92.0055 58.0298 92.8337 58.2204 93.6481 58.404C94.4589 58.5842 95.2489 58.7541 96.0112 58.9169C96.7734 59.0763 97.5079 59.2288 98.1973 59.3675C98.8867 59.5061 99.538 59.6343 100.134 59.7487C101.329 59.9774 102.316 60.1576 103.002 60.2823C103.688 60.4036 104.076 60.4695 104.076 60.4695C104.848 60.5977 105.574 60.5665 106.243 60.4106C106.912 60.2546 107.528 59.9774 108.071 59.61C108.613 59.2392 109.089 58.7818 109.478 58.2689C109.871 57.7595 110.18 57.1946 110.395 56.6089C110.607 56.0233 110.726 55.4203 110.737 54.8311C110.748 54.2455 110.653 53.6736 110.433 53.1538C110.217 52.634 109.877 52.1627 109.406 51.7815C108.932 51.4003 108.328 51.1023 107.576 50.929C107.576 50.929 106.436 50.6899 104.551 50.274C104.08 50.17 103.56 50.0557 103.002 49.9309C102.444 49.8062 101.845 49.6745 101.211 49.5324C100.576 49.3868 99.911 49.2378 99.2145 49.0784C98.5179 48.919 97.7937 48.7527 97.0451 48.5794C96.3001 48.4061 95.5307 48.2259 94.744 48.0388C93.9608 47.8551 93.1602 47.6645 92.3492 47.467C91.5382 47.2729 90.7168 47.0719 89.8919 46.8674C89.067 46.6664 88.2386 46.4585 87.4136 46.2471C86.5852 46.0392 85.7637 45.8278 84.949 45.6129C84.131 45.4015 83.3267 45.1867 82.5328 44.9718C81.7423 44.7535 80.9622 44.5386 80.2064 44.3238C79.4505 44.1089 78.7119 43.8975 78.0045 43.6826C77.4947 43.5302 76.9641 43.3673 76.4127 43.1975C75.8646 43.0242 75.2993 42.844 74.7166 42.6569C74.1373 42.4697 73.5407 42.2757 72.9336 42.0747C72.3266 41.8737 71.7091 41.6692 71.0812 41.4578C71.6028 41.0662 72.121 40.6781 72.6461 40.2934C73.1677 39.9053 73.6964 39.5241 74.2216 39.1463C74.7502 38.7686 75.2824 38.3978 75.8146 38.027C76.3433 37.6562 76.879 37.2888 77.4147 36.9249C77.9505 36.5645 78.4897 36.2041 79.0324 35.8506C79.5717 35.4937 80.1144 35.1437 80.6572 34.7971C81.2034 34.4471 81.7497 34.104 82.2961 33.7644C82.8459 33.4248 83.3957 33.0886 83.9455 32.756C84.4989 32.4267 85.0522 32.0975 85.6091 31.7718C86.1625 31.4495 86.7228 31.1272 87.2798 30.8118C87.8402 30.4965 88.4006 30.1846 88.9645 29.8761C89.525 29.5677 90.089 29.2627 90.6564 28.9613C91.2239 28.6598 91.7914 28.3652 92.3589 28.0706C92.9265 27.783 93.4976 27.4953 94.0721 27.2112C94.6432 26.927 95.2178 26.6463 95.7924 26.3691C96.367 26.0918 96.9452 25.8215 97.5233 25.5547C98.1015 25.2844 98.6797 25.021 99.2614 24.7611C99.8431 24.5012 100.425 24.2447 101.01 23.9952C101.592 23.7422 102.177 23.4962 102.766 23.2536C103.351 23.011 103.937 22.7719 104.525 22.5362C105.114 22.3006 105.707 22.0719 106.296 21.8431C106.888 21.6179 107.481 21.3961 108.073 21.1778C108.669 20.9594 109.262 20.748 109.858 20.5366C110.454 20.3287 111.05 20.1243 111.649 19.9233C112.245 19.7223 112.845 19.5247 113.445 19.3341C114.044 19.1401 114.644 18.9529 115.247 18.7692C115.847 18.5856 116.45 18.4088 117.054 18.2321C117.657 18.0588 118.26 17.889 118.864 17.7227C119.47 17.5563 120.077 17.3969 120.681 17.2375C121.288 17.0816 121.895 16.9291 122.505 16.7801C123.112 16.631 123.719 16.489 124.33 16.3503C124.937 16.2117 125.548 16.0766 126.158 15.9449C126.769 15.8167 127.38 15.6884 127.99 15.5671C128.601 15.4458 129.215 15.3315 129.826 15.2171C130.441 15.1062 131.051 14.9988 131.666 14.8948C132.28 14.7909 132.895 14.6938 133.509 14.6003C134.12 14.5067 134.735 14.4166 135.349 14.3334C135.967 14.2468 136.582 14.1671 137.197 14.0908C137.811 14.0146 138.426 13.9453 139.044 13.8794C139.659 13.8136 140.274 13.7512 140.892 13.6958C141.507 13.6369 142.125 13.5849 142.74 13.5398C143.359 13.4913 143.974 13.4497 144.589 13.4116C145.207 13.3735 145.822 13.3388 146.441 13.3111C147.056 13.2834 147.675 13.2591 148.29 13.2383C148.905 13.221 149.524 13.2071 150.139 13.1967C150.754 13.1863 151.373 13.1829 151.989 13.1829C152.604 13.1829 153.22 13.1898 153.835 13.1967C154.451 13.2071 155.066 13.2245 155.682 13.2418C156.297 13.2626 156.913 13.2868 157.529 13.3146C158.141 13.3458 158.757 13.3804 159.373 13.4185C159.985 13.4601 160.597 13.5017 161.213 13.5502C161.826 13.6022 162.438 13.6542 163.051 13.7131C163.663 13.772 164.273 13.8379 164.885 13.9072C165.498 13.9765 166.107 14.0493 166.716 14.129C167.326 14.2087 167.935 14.2918 168.544 14.3819C169.154 14.4686 169.763 14.5621 170.369 14.6626C170.979 14.7631 171.585 14.8671 172.191 14.9745C172.797 15.0854 173.4 15.1998 174.006 15.3176C174.609 15.4389 175.215 15.5637 175.818 15.6919C176.421 15.8236 177.021 15.9587 177.624 16.0974C178.223 16.2394 178.823 16.385 179.422 16.534C180.022 16.6865 180.622 16.839 181.218 17.0019C181.814 17.1613 182.411 17.3276 183.007 17.5009C183.603 17.6707 184.196 17.8474 184.789 18.0311C185.674 18.3014 186.548 18.5821 187.419 18.8732C188.286 19.1643 189.15 19.4658 190.003 19.7777C190.857 20.0896 191.704 20.4084 192.54 20.7411C193.38 21.0703 194.21 21.41 195.033 21.76C195.856 22.11 196.672 22.4704 197.481 22.8377C198.291 23.2085 199.09 23.5863 199.882 23.9709C200.674 24.3591 201.459 24.7576 202.234 25.1596C203.013 25.5651 203.781 25.9809 204.543 26.4037C205.3 26.8265 206.055 27.2597 206.799 27.6998C207.544 28.1365 208.281 28.587 209.008 29.0444C209.739 29.5019 210.459 29.9697 211.173 30.4445C211.883 30.9193 212.59 31.401 213.286 31.8931C213.979 32.3817 214.669 32.8842 215.348 33.3901C216.027 33.8961 216.7 34.4125 217.362 34.9358C218.024 35.459 218.679 35.9893 219.328 36.5299C219.973 37.067 220.611 37.6146 221.242 38.1691C221.87 38.7201 222.491 39.2815 223.105 39.8533C223.716 40.4216 224.32 40.9969 224.917 41.5791C225.511 42.1613 226.097 42.7539 226.677 43.35C227.254 43.946 227.823 44.5525 228.386 45.1624C228.945 45.7723 229.498 46.3927 230.04 47.0164C230.586 47.6402 231.117 48.271 231.646 48.9086C232.171 49.5463 232.689 50.1908 233.197 50.8423C233.705 51.4939 234.202 52.1488 234.693 52.8107C235.184 53.4761 235.664 54.145 236.138 54.8207C236.608 55.493 237.071 56.1757 237.527 56.8619C237.98 57.5481 238.426 58.2412 238.862 58.9412C239.297 59.6378 239.723 60.3413 240.141 61.0517C240.556 61.7621 240.965 62.476 241.366 63.1968C241.764 63.9142 242.152 64.6419 242.532 65.3731C242.913 66.1009 243.283 66.839 243.647 67.5772C244.007 68.3188 244.36 69.0639 244.703 69.8159C244.248 69.6461 243.821 69.4416 243.336 69.2961C242.67 69.0951 241.997 68.9322 241.322 68.8109C240.65 68.6896 239.972 68.6064 239.293 68.5614C238.615 68.5163 237.938 68.5059 237.26 68.5337C236.579 68.5614 235.906 68.6238 235.233 68.7208C234.559 68.8178 233.887 68.9495 233.224 69.1089C232.559 69.2718 231.9 69.4659 231.249 69.6911C230.598 69.9129 229.95 70.1694 229.317 70.4501C228.684 70.7342 228.057 71.0427 227.445 71.3788C226.83 71.7185 226.229 72.0823 225.641 72.467C225.05 72.8551 224.477 73.2675 223.918 73.7042C223.359 74.1408 222.817 74.5983 222.293 75.0765C221.769 75.5547 221.262 76.0538 220.773 76.5736C220.287 77.0934 219.819 77.6306 219.375 78.1851C218.927 78.7395 218.504 79.3113 218.106 79.9005C217.707 80.4861 217.333 81.0891 216.983 81.706C216.637 82.3228 216.314 82.9501 216.02 83.5947C215.756 84.1665 215.516 84.7418 215.294 85.3205C215.075 85.8958 214.877 86.471 214.699 87.0498C214.518 87.6285 214.362 88.2072 214.219 88.7895C214.079 89.3717 213.954 89.9538 213.849 90.5361C213.744 91.1217 213.653 91.7074 213.58 92.2965C213.506 92.8822 213.446 93.4748 213.4 94.0674C213.354 94.66 213.322 95.256 213.304 95.8521C213.286 96.4516 213.278 97.0546 213.281 97.6576C213.287 98.2606 213.3 98.8705 213.323 99.4805C213.347 100.09 213.38 100.704 213.421 101.324C213.462 101.941 213.51 102.565 213.564 103.189C213.619 103.816 213.677 104.447 213.742 105.081C213.811 105.715 213.88 106.356 213.955 107.001C214.027 107.642 214.103 108.293 214.182 108.945C214.261 109.6 214.34 110.258 214.423 110.924C214.502 111.589 214.585 112.258 214.665 112.934C214.708 113.474 214.755 114.025 214.795 114.583C214.835 115.141 214.872 115.709 214.909 116.285C214.943 116.863 214.973 117.449 214.996 118.045C215.019 118.641 215.039 119.244 215.049 119.858C215.058 120.474 215.061 121.098 215.057 121.732C215.049 122.363 215.035 123.008 215.011 123.659C214.983 124.314 214.948 124.976 214.899 125.648C214.851 126.321 214.788 127.003 214.716 127.693C214.64 128.386 214.553 129.086 214.45 129.8C214.346 130.51 214.226 131.235 214.091 131.966C213.957 132.697 213.802 133.442 213.629 134.194C213.461 134.946 213.271 135.709 213.061 136.485C212.851 137.258 212.62 138.041 212.369 138.835C212.118 139.632 211.846 140.436 211.546 141.25C211.25 142.068 210.93 142.893 210.586 143.731C210.241 144.57 209.873 145.419 209.477 146.278C209.203 146.871 208.912 147.471 208.606 148.07C208.298 148.67 207.975 149.273 207.636 149.879C207.296 150.486 206.939 151.095 206.568 151.709C206.194 152.322 205.81 152.943 205.405 153.566C205.003 154.19 204.584 154.821 204.151 155.455C203.715 156.093 203.269 156.734 202.801 157.385C202.338 158.033 201.86 158.688 201.366 159.354C200.871 160.019 200.362 160.691 199.84 161.371C199.318 162.053 198.782 162.743 198.229 163.443C197.679 164.143 197.113 164.85 196.532 165.571C195.955 166.292 195.361 167.023 194.753 167.764C194.148 168.506 193.526 169.262 192.891 170.027C192.259 170.793 191.61 171.57 190.951 172.363C190.291 173.153 189.618 173.957 188.932 174.779C188.245 175.596 187.548 176.428 186.837 177.277C186.127 178.126 185.402 178.989 184.668 179.866C184.085 180.575 183.503 181.284 182.922 181.994C182.342 182.703 181.761 183.412 181.18 184.122C180.6 184.831 180.019 185.539 179.438 186.246C178.858 186.955 178.277 187.664 177.696 188.374C177.116 189.085 176.535 189.796 175.954 190.505C175.374 191.214 174.793 191.924 174.212 192.633C173.632 193.342 173.051 194.051 172.47 194.761C171.89 195.472 171.309 196.183 170.728 196.892C170.148 197.601 169.567 198.312 168.986 199.023C168.406 199.732 167.825 200.443 167.244 201.154C166.664 201.864 166.083 202.574 165.503 203.286C164.922 203.995 164.341 204.705 163.761 205.417C163.18 206.129 162.599 206.84 162.019 207.552C161.438 208.261 160.857 208.971 160.277 209.683C159.696 210.395 159.115 211.106 158.535 211.818C157.954 212.529 157.374 213.241 156.793 213.953C156.876 213.269 156.959 212.586 157.042 211.904C157.125 211.221 157.208 210.538 157.291 209.856C157.374 209.172 157.456 208.489 157.537 207.805C157.62 207.123 157.703 206.44 157.786 205.757C157.869 205.073 157.952 204.39 158.035 203.709C158.118 203.025 158.201 202.341 158.284 201.657C158.367 200.973 158.451 200.29 158.534 199.609C158.614 198.925 158.696 198.241 158.779 197.557C158.862 196.873 158.945 196.19 159.028 195.506C159.111 194.822 159.194 194.139 159.278 193.458C159.361 192.774 159.442 192.09 159.523 191.406C159.606 190.722 159.689 190.038 159.772 189.354C159.855 188.671 159.938 187.987 160.022 187.303C160.105 186.619 160.186 185.935 160.267 185.251C160.35 184.567 160.433 183.884 160.516 183.2C160.599 182.516 160.682 181.832 160.765 181.148C160.848 180.464 160.93 179.779 161.011 179.093C161.094 178.409 161.177 177.725 161.26 177.042C161.343 176.358 161.426 175.674 161.509 174.99C161.592 174.304 161.674 173.619 161.755 172.935C161.838 172.251 161.921 171.566 162.004 170.88C162.087 170.196 162.17 169.512 162.253 168.828C162.334 168.142 162.416 167.457 162.499 166.773C162.582 166.089 162.665 165.404 162.748 164.718C162.829 164.034 162.911 163.349 162.994 162.663C163.077 161.979 163.16 161.294 163.243 160.608C163.326 159.922 163.408 159.237 163.488 158.553C163.571 157.867 163.654 157.182 163.737 156.498C163.82 155.812 163.902 155.126 163.983 154.44C164.066 153.756 164.149 153.071 164.232 152.385C164.315 151.698 164.397 151.012 164.478 150.326C164.561 149.642 164.644 148.957 164.727 148.271C164.81 147.585 164.892 146.899 164.972 146.213C165.055 145.526 165.139 144.84 165.222 144.154C165.302 143.468 165.384 142.782 165.467 142.096C165.55 141.409 165.633 140.723 165.716 140.037C165.797 139.351 165.879 138.665 165.962 137.979C166.045 137.292 166.127 136.606 166.207 135.92C166.29 135.234 166.373 134.548 166.456 133.862C166.537 133.173 166.619 132.486 166.702 131.8C166.785 131.113 166.868 130.427 166.951 129.741C167.032 129.053 167.114 128.365 167.197 127.679C167.28 126.993 167.362 126.306 167.442 125.617C167.525 124.931 167.607 124.244 167.688 123.555C167.771 122.869 167.854 122.182 167.937 121.493C168.018 120.807 168.099 120.12 168.182 119.431C168.265 118.745 168.347 118.058 168.428 117.369C168.511 116.681 168.594 115.994 168.677 115.307C168.758 114.619 168.84 113.93 168.923 113.242C169.003 112.556 169.085 111.868 169.168 111.18C169.251 110.491 169.333 109.803 169.414 109.115C169.497 108.428 169.58 107.741 169.663 107.053C169.743 106.364 169.825 105.676 169.908 104.987C169.989 104.299 170.071 103.61 170.154 102.922C170.234 102.233 170.316 101.545 170.399 100.856C170.482 100.168 170.564 99.4793 170.645 98.7908C170.728 98.1024 170.81 97.4139 170.89 96.7254C170.973 96.0346 171.055 95.345 171.136 94.6565C171.219 93.968 171.302 93.2796 171.385 92.5911C171.466 91.9003 171.547 91.2107 171.63 90.5222C171.711 89.8337 171.793 89.1452 171.876 88.4568C171.957 87.766 172.038 87.0763 172.121 86.3879C172.202 85.6971 172.284 85.0074 172.367 84.319C172.448 83.6282 172.529 82.9385 172.612 82.2501ZM143.959 242.917C144.367 242.45 144.773 241.984 145.179 241.517C145.587 241.05 145.995 240.585 146.403 240.12C146.811 239.654 147.218 239.187 147.626 238.72C148.034 238.256 148.442 237.79 148.85 237.324C149.256 236.859 149.663 236.394 150.071 235.927C150.478 235.46 150.886 234.995 151.294 234.531C151.702 234.066 152.11 233.601 152.518 233.134C152.926 232.67 153.333 232.204 153.738 231.737C154.146 231.273 154.554 230.809 154.962 230.344C155.37 229.878 155.778 229.412 156.186 228.948C156.594 228.483 157.002 228.019 157.41 227.555C157.818 227.088 158.226 226.622 158.634 226.158C159.041 225.694 159.448 225.229 159.854 224.765C160.262 224.3 160.67 223.836 161.078 223.372C161.486 222.907 161.894 222.443 162.301 221.979C162.709 221.514 163.117 221.05 163.525 220.585C163.933 220.121 164.341 219.657 164.749 219.192C165.157 218.728 165.565 218.264 165.973 217.799C166.381 217.335 166.789 216.87 167.197 216.406C167.602 215.942 168.009 215.478 168.417 215.016C168.825 214.552 169.233 214.088 169.641 213.623C170.049 213.159 170.457 212.696 170.865 212.234C171.273 211.769 171.681 211.305 172.089 210.84C172.496 210.378 172.904 209.915 173.312 209.451C173.72 208.986 174.128 208.523 174.536 208.061C174.944 207.597 175.352 207.134 175.76 206.672C176.168 206.207 176.576 205.744 176.984 205.282C177.392 204.817 177.8 204.354 178.208 203.892C178.616 203.428 179.024 202.965 179.432 202.503C179.84 202.04 180.247 201.577 180.655 201.113C181.063 200.651 181.471 200.189 181.879 199.727C182.287 199.262 182.695 198.799 183.103 198.337C183.511 197.875 183.919 197.412 184.327 196.947C184.735 196.485 185.143 196.023 185.551 195.561C185.959 195.099 186.367 194.637 186.775 194.175C187.183 193.711 187.591 193.247 187.999 192.785C188.407 192.323 188.814 191.861 189.222 191.399C189.63 190.937 190.038 190.475 190.446 190.013C190.854 189.551 191.262 189.089 191.67 188.627C192.078 188.165 192.486 187.703 192.894 187.241C193.304 186.778 193.713 186.316 194.121 185.854C194.529 185.392 194.937 184.93 195.345 184.468C195.753 184.006 196.161 183.544 196.569 183.082C196.977 182.62 197.385 182.158 197.793 181.696C198.201 181.236 198.609 180.775 199.017 180.313C199.425 179.851 199.833 179.389 200.241 178.927C200.649 178.465 201.057 178.004 201.465 177.544C201.873 177.082 202.281 176.62 202.689 176.158C203.099 175.696 203.508 175.235 203.916 174.775C204.324 174.313 204.732 173.851 205.14 173.389C205.548 172.929 205.956 172.468 206.364 172.006C206.772 171.544 207.18 171.083 207.588 170.624C207.996 170.161 208.404 169.699 208.812 169.237C209.219 168.778 209.627 168.317 210.035 167.855C210.446 167.395 210.855 166.934 211.263 166.472C211.671 166.012 212.079 165.551 212.487 165.089C212.895 164.629 213.303 164.168 213.711 163.706C214.119 163.247 214.527 162.786 214.935 162.324C215.343 161.864 215.752 161.403 216.162 160.941C216.57 160.481 216.978 160.021 217.386 159.562C217.794 159.1 218.202 158.639 218.61 158.179C219.018 157.719 219.426 157.258 219.834 156.796C220.242 156.336 220.65 155.877 221.058 155.417C221.468 154.955 221.877 154.494 222.285 154.034C222.706 153.594 223.123 153.157 223.534 152.724C223.944 152.291 224.351 151.858 224.752 151.425C225.552 150.565 226.332 149.709 227.091 148.864C227.85 148.015 228.588 147.176 229.31 146.344C230.027 145.509 230.728 144.684 231.408 143.863C232.087 143.045 232.75 142.231 233.392 141.427C234.037 140.619 234.662 139.819 235.266 139.025C235.873 138.228 236.464 137.441 237.037 136.658C237.61 135.875 238.165 135.099 238.704 134.326C239.243 133.557 239.767 132.791 240.275 132.028C240.782 131.266 241.273 130.51 241.749 129.758C242.229 129.01 242.692 128.261 243.137 127.52C243.586 126.778 244.021 126.04 244.443 125.309C244.864 124.574 245.272 123.846 245.666 123.122C246.059 122.394 246.443 121.673 246.813 120.956C247.182 120.239 247.542 119.525 247.891 118.814C248.236 118.104 248.571 117.397 248.896 116.694C249.37 115.671 249.816 114.666 250.239 113.672C250.664 112.677 251.062 111.696 251.44 110.726C251.817 109.756 252.171 108.799 252.504 107.857C252.836 106.91 253.149 105.978 253.437 105.06C253.474 105.632 253.507 106.207 253.534 106.782C253.564 107.358 253.583 107.933 253.603 108.512C253.622 109.087 253.635 109.666 253.644 110.248C253.65 110.826 253.656 111.409 253.655 111.987C253.654 112.57 253.649 113.152 253.638 113.738C253.63 114.32 253.615 114.905 253.593 115.491C253.575 116.077 253.55 116.662 253.521 117.248C253.492 117.837 253.457 118.423 253.421 119.012C253.382 119.601 253.336 120.19 253.29 120.783C253.241 121.372 253.188 121.965 253.131 122.554C253.072 123.146 253.008 123.739 252.942 124.335C252.875 124.928 252.802 125.52 252.725 126.116C252.648 126.709 252.567 127.305 252.48 127.901C252.392 128.497 252.301 129.093 252.204 129.689C252.106 130.289 252.005 130.885 251.9 131.484C251.792 132.08 251.68 132.68 251.565 133.279C251.45 133.879 251.329 134.478 251.203 135.078C251.074 135.678 250.945 136.277 250.81 136.877C250.671 137.48 250.531 138.079 250.385 138.682C250.239 139.282 250.086 139.885 249.933 140.484C249.777 141.087 249.613 141.69 249.45 142.293C249.283 142.896 249.113 143.499 248.936 144.102C248.758 144.702 248.578 145.308 248.39 145.911C248.206 146.514 248.015 147.117 247.817 147.72C247.623 148.323 247.421 148.926 247.213 149.529C247.008 150.136 246.796 150.739 246.578 151.342C246.362 151.945 246.14 152.548 245.911 153.154C245.685 153.757 245.453 154.36 245.217 154.963C244.978 155.566 244.735 156.169 244.488 156.775C244.242 157.378 243.989 157.981 243.729 158.584C243.472 159.187 243.208 159.79 242.941 160.393C242.671 160.996 242.396 161.599 242.119 162.199C241.825 162.84 241.523 163.474 241.218 164.108C240.914 164.743 240.602 165.373 240.29 166.001C239.975 166.628 239.656 167.252 239.33 167.872C239.008 168.496 238.682 169.113 238.35 169.729C238.017 170.346 237.678 170.96 237.338 171.57C236.998 172.18 236.652 172.786 236.302 173.389C235.952 173.995 235.598 174.595 235.237 175.194C234.88 175.791 234.516 176.387 234.149 176.979C233.782 177.572 233.411 178.161 233.036 178.747C232.662 179.332 232.28 179.914 231.899 180.493C231.514 181.075 231.126 181.651 230.734 182.226C230.342 182.798 229.947 183.37 229.548 183.938C229.149 184.503 228.747 185.068 228.337 185.629C227.931 186.19 227.519 186.748 227.102 187.303C226.69 187.857 226.27 188.408 225.847 188.956C225.423 189.503 224.997 190.048 224.566 190.592C224.136 191.132 223.703 191.669 223.265 192.207C222.828 192.74 222.388 193.274 221.94 193.801C221.496 194.331 221.048 194.854 220.597 195.377C220.146 195.897 219.688 196.417 219.23 196.933C218.771 197.446 218.31 197.959 217.845 198.469C217.376 198.975 216.907 199.481 216.435 199.983C215.963 200.482 215.488 200.981 215.009 201.477C214.529 201.969 214.047 202.461 213.561 202.95C213.075 203.438 212.589 203.92 212.096 204.402C211.603 204.883 211.109 205.358 210.609 205.833C210.113 206.308 209.613 206.775 209.106 207.243C208.602 207.708 208.095 208.172 207.584 208.629C207.077 209.09 206.563 209.544 206.046 209.998C205.532 210.449 205.011 210.899 204.49 211.343C203.969 211.787 203.444 212.23 202.916 212.667C202.391 213.103 201.86 213.537 201.328 213.966C200.793 214.396 200.258 214.826 199.723 215.245C199.184 215.668 198.642 216.087 198.1 216.503C197.558 216.919 197.009 217.331 196.463 217.737C195.914 218.146 195.362 218.548 194.809 218.95C194.256 219.348 193.7 219.743 193.144 220.138C192.584 220.53 192.025 220.918 191.462 221.303C190.898 221.687 190.335 222.069 189.765 222.443C189.198 222.821 188.628 223.195 188.058 223.562C187.484 223.933 186.91 224.297 186.337 224.657C185.759 225.018 185.182 225.375 184.601 225.728C184.021 226.082 183.436 226.432 182.852 226.778C182.268 227.121 181.683 227.464 181.096 227.801C180.508 228.137 179.916 228.469 179.325 228.799C178.73 229.128 178.139 229.454 177.54 229.772C176.945 230.095 176.347 230.41 175.749 230.722C175.15 231.037 174.548 231.346 173.946 231.647C173.341 231.952 172.739 232.254 172.13 232.548C171.524 232.846 170.918 233.137 170.306 233.425C169.697 233.713 169.088 233.993 168.475 234.274C167.862 234.551 167.246 234.825 166.634 235.095C166.017 235.369 165.401 235.633 164.782 235.896C164.162 236.156 163.542 236.416 162.922 236.669C162.302 236.922 161.679 237.168 161.056 237.414C160.432 237.656 159.806 237.899 159.182 238.135C158.555 238.37 157.928 238.599 157.298 238.828C156.671 239.053 156.04 239.275 155.41 239.493C154.779 239.711 154.149 239.923 153.515 240.131C152.884 240.339 152.25 240.543 151.616 240.744C150.982 240.942 150.344 241.139 149.71 241.33C149.072 241.52 148.434 241.704 147.796 241.884C147.159 242.068 146.521 242.241 145.879 242.415C145.238 242.588 144.6 242.754 143.959 242.917Z" fill="#E0E0E0"/>
</svg>
