<svg width="121" height="88" viewBox="0 0 121 88" fill="none" xmlns="http://www.w3.org/2000/svg">
<path d="M51.8125 17.1641C50.6719 17.1641 49.7188 16.9141 48.9531 16.4141C48.1927 15.9141 47.6198 15.2292 47.2344 14.3594C46.8542 13.4896 46.6641 12.5026 46.6641 11.3984V11.2344C46.6641 10.1198 46.8646 9.13021 47.2656 8.26562C47.6667 7.39583 48.2422 6.71094 48.9922 6.21094C49.7422 5.71094 50.638 5.46094 51.6797 5.46094C52.4141 5.46094 53.0859 5.57552 53.6953 5.80469C54.3047 6.03385 54.8099 6.32552 55.2109 6.67969V9.13281H53.9844L53.8203 7.33594C53.6536 7.20573 53.4609 7.09635 53.2422 7.00781C53.0286 6.91927 52.7891 6.85156 52.5234 6.80469C52.263 6.75781 51.9792 6.73438 51.6719 6.73438C50.9271 6.73438 50.2969 6.92708 49.7812 7.3125C49.2656 7.69271 48.875 8.21875 48.6094 8.89062C48.3438 9.5625 48.2109 10.3385 48.2109 11.2188V11.3984C48.2109 12.3516 48.3516 13.1667 48.6328 13.8438C48.9193 14.5156 49.3333 15.0286 49.875 15.3828C50.4219 15.737 51.0859 15.9141 51.8672 15.9141C52.2318 15.9141 52.5885 15.8698 52.9375 15.7812C53.2865 15.6927 53.5755 15.5781 53.8047 15.4375L53.9766 13.8516H55.1797V16.3203C54.7526 16.5859 54.2422 16.7943 53.6484 16.9453C53.0547 17.0911 52.4427 17.1641 51.8125 17.1641ZM60.8516 17.1641C60.1589 17.1641 59.4922 17.0625 58.8516 16.8594C58.2109 16.6562 57.599 16.3438 57.0156 15.9219V13.4922H58.2109L58.4688 15.2812C58.8073 15.4896 59.1745 15.651 59.5703 15.7656C59.9661 15.8802 60.3932 15.9375 60.8516 15.9375C61.3724 15.9375 61.8125 15.8594 62.1719 15.7031C62.5365 15.5417 62.8151 15.3203 63.0078 15.0391C63.2005 14.7578 63.2969 14.4297 63.2969 14.0547C63.2969 13.7057 63.2135 13.3984 63.0469 13.1328C62.8802 12.8672 62.6042 12.6354 62.2188 12.4375C61.8385 12.2344 61.3177 12.0573 60.6562 11.9062C59.875 11.724 59.2135 11.4818 58.6719 11.1797C58.1354 10.8724 57.7266 10.5026 57.4453 10.0703C57.1693 9.63281 57.0312 9.13281 57.0312 8.57031C57.0312 7.97656 57.1875 7.44531 57.5 6.97656C57.8177 6.50781 58.2578 6.13802 58.8203 5.86719C59.3828 5.59635 60.0391 5.46094 60.7891 5.46094C61.5859 5.46094 62.2891 5.58333 62.8984 5.82812C63.513 6.06771 64.0182 6.35938 64.4141 6.70312V8.97656H63.2188L62.9609 7.35156C62.7266 7.16406 62.4349 7.00781 62.0859 6.88281C61.737 6.75781 61.3047 6.69531 60.7891 6.69531C60.3516 6.69531 59.9661 6.77344 59.6328 6.92969C59.2995 7.08073 59.0391 7.29427 58.8516 7.57031C58.6641 7.84635 58.5703 8.17188 58.5703 8.54688C58.5703 8.875 58.6536 9.16146 58.8203 9.40625C58.9922 9.65104 59.2682 9.86719 59.6484 10.0547C60.0339 10.237 60.5469 10.4089 61.1875 10.5703C62.3854 10.8672 63.2917 11.3073 63.9062 11.8906C64.526 12.4688 64.8359 13.1849 64.8359 14.0391C64.8359 14.6484 64.6719 15.1901 64.3438 15.6641C64.0156 16.1328 63.5521 16.5 62.9531 16.7656C62.3594 17.0312 61.6589 17.1641 60.8516 17.1641ZM70.2734 17.1641C69.5807 17.1641 68.9141 17.0625 68.2734 16.8594C67.6328 16.6562 67.0208 16.3438 66.4375 15.9219V13.4922H67.6328L67.8906 15.2812C68.2292 15.4896 68.5964 15.651 68.9922 15.7656C69.388 15.8802 69.8151 15.9375 70.2734 15.9375C70.7943 15.9375 71.2344 15.8594 71.5938 15.7031C71.9583 15.5417 72.237 15.3203 72.4297 15.0391C72.6224 14.7578 72.7188 14.4297 72.7188 14.0547C72.7188 13.7057 72.6354 13.3984 72.4688 13.1328C72.3021 12.8672 72.026 12.6354 71.6406 12.4375C71.2604 12.2344 70.7396 12.0573 70.0781 11.9062C69.2969 11.724 68.6354 11.4818 68.0938 11.1797C67.5573 10.8724 67.1484 10.5026 66.8672 10.0703C66.5911 9.63281 66.4531 9.13281 66.4531 8.57031C66.4531 7.97656 66.6094 7.44531 66.9219 6.97656C67.2396 6.50781 67.6797 6.13802 68.2422 5.86719C68.8047 5.59635 69.4609 5.46094 70.2109 5.46094C71.0078 5.46094 71.7109 5.58333 72.3203 5.82812C72.9349 6.06771 73.4401 6.35938 73.8359 6.70312V8.97656H72.6406L72.3828 7.35156C72.1484 7.16406 71.8568 7.00781 71.5078 6.88281C71.1589 6.75781 70.7266 6.69531 70.2109 6.69531C69.7734 6.69531 69.388 6.77344 69.0547 6.92969C68.7214 7.08073 68.4609 7.29427 68.2734 7.57031C68.0859 7.84635 67.9922 8.17188 67.9922 8.54688C67.9922 8.875 68.0755 9.16146 68.2422 9.40625C68.4141 9.65104 68.6901 9.86719 69.0703 10.0547C69.4557 10.237 69.9688 10.4089 70.6094 10.5703C71.8073 10.8672 72.7135 11.3073 73.3281 11.8906C73.9479 12.4688 74.2578 13.1849 74.2578 14.0391C74.2578 14.6484 74.0938 15.1901 73.7656 15.6641C73.4375 16.1328 72.974 16.5 72.375 16.7656C71.7812 17.0312 71.0807 17.1641 70.2734 17.1641Z" fill="white"/>
<path d="M77.4457 37.4011L43.5543 37.3928L44.1016 44.1673L70.1386 44.1714L69.4822 51.1878H52.4068L53.0241 57.8341H68.9204L67.98 66.9364L60.4979 69.014L52.8965 66.9219L52.413 61.4705H45.7005L46.4454 71.4286L60.4979 75.8278L74.3138 71.8752L77.4437 37.4032L77.4457 37.4011ZM33.5 26H87.5L82.5881 81.7051L60.4403 88L38.416 81.701L33.5 26Z" fill="#E0E0E0"/>
</svg>
