<svg width="121" height="89" viewBox="0 0 121 89" fill="none" xmlns="http://www.w3.org/2000/svg">
<path d="M37.0078 17V16.0156L38.2812 15.7969V6.83594L37.0078 6.61719V5.625H41.0938V6.61719L39.8203 6.83594V10.7656H45.2578V6.83594L43.9844 6.61719V5.625H45.2578H46.7969H48.0703V6.61719L46.7969 6.83594V15.7969L48.0703 16.0156V17H43.9844V16.0156L45.2578 15.7969V11.9766H39.8203V15.7969L41.0938 16.0156V17H37.0078ZM52.1406 17V16.0156L53.4141 15.7969V6.78906H50.8359L50.6094 8.36719H49.4531V5.625H58.9062V8.36719H57.7656L57.5312 6.78906H54.9531V15.7969L56.2266 16.0156V17H52.1406ZM60.4219 17V16.0156L61.6953 15.7969V6.83594L60.4219 6.61719V5.625H61.6953H63.75L67.4141 14.2578H67.4609L71.0078 5.625H74.4375V6.61719L73.1641 6.83594V15.7969L74.4375 16.0156V17H70.3516V16.0156L71.6953 15.7969V12.5V7.72656L71.6562 7.71875L67.9609 16.5938H66.9375L63.1172 7.73438L63.0781 7.74219L63.1328 12.5V15.7969L64.5078 16.0156V17H60.4219ZM75.8047 17V16.0156L77.0781 15.7969V6.83594L75.8047 6.61719V5.625H77.0781H78.6172H79.8906V6.61719L78.6172 6.83594V15.8203H82.6406L82.8203 14.0234H84V17H75.8047Z" fill="white"/>
<path fill-rule="evenodd" clip-rule="evenodd" d="M78.4705 44.9H78.448H51.3077L51.9568 51.2H77.8247C77.4456 56.7188 76.2985 68.4111 75.8776 73.7314L61.3484 77.8212V77.8335L61.3163 77.8489L46.7774 72.7332L45.7814 60.65H52.9078L53.4123 67.1484L61.3291 70.1H61.3484L69.2524 67.2653L70.0653 57.5H45.4633C45.3444 56.2369 43.815 39.8348 43.5483 38.6H79.1067C78.9075 40.679 78.7051 42.8147 78.4705 44.9ZM33 26L38.1601 83.166L61.3163 89L84.5335 83.0491L89.7 26H33Z" fill="#E0E0E0"/>
</svg>
