<svg width="121" height="90" viewBox="0 0 121 90" fill="none" xmlns="http://www.w3.org/2000/svg">
<path d="M55.1484 17.1641C54.5182 17.1641 53.9453 17.0391 53.4297 16.7891C52.9193 16.5391 52.5078 16.1615 52.1953 15.6562C51.888 15.151 51.7188 14.5182 51.6875 13.7578L51.7031 13.7109H53.1797C53.2005 14.4766 53.375 15.0391 53.7031 15.3984C54.0365 15.7578 54.5104 15.9375 55.125 15.9375C55.5573 15.9375 55.9115 15.8464 56.1875 15.6641C56.4635 15.4766 56.6667 15.2214 56.7969 14.8984C56.9323 14.5703 57 14.1953 57 13.7734V6.83594L55.4844 6.63281V5.625H59.8125V6.61719L58.5391 6.83594V13.7734C58.5391 14.4505 58.4089 15.0443 58.1484 15.5547C57.8932 16.0651 57.513 16.4609 57.0078 16.7422C56.5078 17.0234 55.888 17.1641 55.1484 17.1641ZM65.0938 17.1641C64.401 17.1641 63.7344 17.0625 63.0938 16.8594C62.4531 16.6562 61.8411 16.3438 61.2578 15.9219V13.4922H62.4531L62.7109 15.2812C63.0495 15.4896 63.4167 15.651 63.8125 15.7656C64.2083 15.8802 64.6354 15.9375 65.0938 15.9375C65.6146 15.9375 66.0547 15.8594 66.4141 15.7031C66.7786 15.5417 67.0573 15.3203 67.25 15.0391C67.4427 14.7578 67.5391 14.4297 67.5391 14.0547C67.5391 13.7057 67.4557 13.3984 67.2891 13.1328C67.1224 12.8672 66.8464 12.6354 66.4609 12.4375C66.0807 12.2344 65.5599 12.0573 64.8984 11.9062C64.1172 11.724 63.4557 11.4818 62.9141 11.1797C62.3776 10.8724 61.9688 10.5026 61.6875 10.0703C61.4115 9.63281 61.2734 9.13281 61.2734 8.57031C61.2734 7.97656 61.4297 7.44531 61.7422 6.97656C62.0599 6.50781 62.5 6.13802 63.0625 5.86719C63.625 5.59635 64.2812 5.46094 65.0312 5.46094C65.8281 5.46094 66.5312 5.58333 67.1406 5.82812C67.7552 6.06771 68.2604 6.35938 68.6562 6.70312V8.97656H67.4609L67.2031 7.35156C66.9688 7.16406 66.6771 7.00781 66.3281 6.88281C65.9792 6.75781 65.5469 6.69531 65.0312 6.69531C64.5938 6.69531 64.2083 6.77344 63.875 6.92969C63.5417 7.08073 63.2812 7.29427 63.0938 7.57031C62.9062 7.84635 62.8125 8.17188 62.8125 8.54688C62.8125 8.875 62.8958 9.16146 63.0625 9.40625C63.2344 9.65104 63.5104 9.86719 63.8906 10.0547C64.276 10.237 64.7891 10.4089 65.4297 10.5703C66.6276 10.8672 67.5339 11.3073 68.1484 11.8906C68.7682 12.4688 69.0781 13.1849 69.0781 14.0391C69.0781 14.6484 68.9141 15.1901 68.5859 15.6641C68.2578 16.1328 67.7943 16.5 67.1953 16.7656C66.6016 17.0312 65.901 17.1641 65.0938 17.1641Z" fill="white"/>
<path d="M88.6364 25.4523C88.3728 25.1642 88.0022 25 87.6122 25H33.3878C32.9978 25 32.6273 25.1642 32.3636 25.4523C32.0999 25.7404 31.9709 26.1272 32.0055 26.5155L36.8906 81.3836C36.942 81.957 37.3403 82.4399 37.8926 82.5985L60.1114 88.9625C60.2349 88.9973 60.364 89.0154 60.4917 89.0154C60.6194 89.0154 60.7484 88.9973 60.872 88.9625L83.1102 82.5985C83.6625 82.4399 84.0608 81.957 84.1122 81.3836L88.9945 26.5155C89.0292 26.1272 88.8987 25.7404 88.6364 25.4523ZM42.4585 62.5798L52.1732 65.2824V37.5247H57.7244V73.7074L42.4585 69.4615V62.5798ZM78.6165 52.8328L77.1537 69.8803L63.2756 73.7074V67.3044L72.6433 64.7229L72.9903 59.5043L63.2756 61.1826V37.5247H79.9293L79.4505 43.0913H68.8269V54.2244L78.6165 52.8328Z" fill="#E0E0E0"/>
</svg>
