<svg width="189" height="189" viewBox="0 0 189 189" fill="none" xmlns="http://www.w3.org/2000/svg">
<g clip-path="url(#clip0_78_242)">
<path d="M142.656 73.1682L122.793 53.3043C121.592 52.1032 119.645 52.1028 118.443 53.3043C117.241 54.5052 117.241 56.4528 118.443 57.6539L136.132 75.3432L118.443 93.0321C117.241 94.2329 117.241 96.1805 118.443 97.3817C119.044 97.9826 119.831 98.2827 120.618 98.2827C121.405 98.2827 122.192 97.9823 122.792 97.382L142.656 77.5182C143.858 76.317 143.858 74.3694 142.656 73.1682Z" fill="#E0E0E0" fill-opacity="0.1"/>
<path d="M52.8696 75.3426L70.5584 57.6533C71.7596 56.4525 71.7596 54.5049 70.5584 53.3037C69.3576 52.1025 67.41 52.1025 66.2088 53.3037L46.345 73.1676C45.1438 74.3684 45.1438 76.316 46.345 77.5172L66.2088 97.381C66.8091 97.982 67.5965 98.2821 68.3835 98.2821C69.1705 98.2821 69.9579 97.9816 70.5581 97.3807C71.7593 96.1799 71.7593 94.2323 70.5581 93.0311L52.8696 75.3426Z" fill="#E0E0E0" fill-opacity="0.1"/>
<path d="M104.548 43.6237C102.929 43.1106 101.2 44.008 100.688 45.627L82.4499 103.201C81.9368 104.82 82.8338 106.549 84.4532 107.062C84.7626 107.16 85.0752 107.206 85.3831 107.206C86.688 107.206 87.8992 106.369 88.3144 105.059L106.552 47.4849C107.065 45.8651 106.168 44.1364 104.548 43.6237Z" fill="#E0E0E0" fill-opacity="0.1"/>
<path d="M173.956 9.14209H15.044C6.74901 9.14209 0 15.8911 0 24.1861V46.0492C0 47.748 1.37727 49.1249 3.07569 49.1249C4.77411 49.1249 6.15137 47.7476 6.15137 46.0492V24.1861C6.15137 19.2824 10.1407 15.2935 15.044 15.2935H173.956C178.86 15.2935 182.849 19.2828 182.849 24.1861V129.174H163.576C161.877 129.174 160.5 130.551 160.5 132.25C160.5 133.948 161.878 135.325 163.576 135.325H182.849V140.963C182.849 145.867 178.86 149.856 173.956 149.856H116.588H72.4122H15.044C10.1403 149.856 6.15137 145.867 6.15137 140.963V135.325H153.324C155.022 135.325 156.399 133.948 156.399 132.25C156.399 130.551 155.022 129.174 153.324 129.174H6.15137V56.3021C6.15137 54.6033 4.77411 53.2264 3.07569 53.2264C1.37727 53.2264 0 54.6033 0 56.3021V140.964C0 149.259 6.74901 156.008 15.044 156.008H67.7522L60.187 173.706H45.4088C43.71 173.706 42.3331 175.084 42.3331 176.782C42.3331 178.481 43.7104 179.858 45.4088 179.858H143.591C145.29 179.858 146.667 178.481 146.667 176.782C146.667 175.084 145.29 173.706 143.591 173.706H128.813L121.248 156.008H173.956C182.251 156.008 189 149.259 189 140.964V24.1861C189 15.8911 182.251 9.14209 173.956 9.14209ZM122.123 173.706H66.8773L72.1332 161.41H116.868L122.123 173.706Z" fill="#E0E0E0" fill-opacity="0.1"/>
<path d="M97.0561 140.155C96.3496 139.082 94.9952 138.568 93.7516 138.879C92.4533 139.203 91.4939 140.373 91.4293 141.71C91.2949 144.491 94.7907 146.003 96.7191 143.989C97.7021 142.962 97.8553 141.339 97.0561 140.155Z" fill="#E0E0E0" fill-opacity="0.1"/>
</g>
<defs>
<clipPath id="clip0_78_242">
<rect width="189" height="189" fill="white"/>
</clipPath>
</defs>
</svg>
