<svg width="375" height="292" viewBox="0 0 375 292" fill="none" xmlns="http://www.w3.org/2000/svg">
<g clip-path="url(#clip0_78_151)">
<path d="M94.4228 184.1C80.5951 174.784 61.7657 178.454 52.4491 192.281L32.041 222.571C22.7243 236.399 26.3945 255.228 40.2223 264.544C54.0501 273.861 72.8792 270.191 82.1958 256.363L102.604 226.074C111.92 212.246 108.251 193.417 94.4228 184.1ZM99.5977 224.048L99.3313 224.444C90.5643 223.485 82.0685 220.471 74.6079 215.67L80.2569 207.286C82.6886 208.255 85.5568 207.438 87.0776 205.18L91.3131 198.894C92.834 196.637 92.5141 193.672 90.703 191.782L93.3827 187.805C104.736 196.218 107.571 212.214 99.5977 224.048ZM88.4242 193.003C89.9199 194.011 90.3171 196.048 89.3092 197.544L85.0736 203.83C84.0659 205.326 82.0289 205.723 80.5331 204.715C79.0372 203.708 78.6402 201.671 79.6481 200.175L83.8837 193.888C84.8914 192.393 86.9286 191.996 88.4242 193.003ZM91.3786 186.455L88.6988 190.432C86.2676 189.465 83.4002 190.282 81.8798 192.538L77.6442 198.825C76.1237 201.081 76.4433 204.046 78.2531 205.936L72.6039 214.32C65.3536 209.209 59.3699 202.468 55.1892 194.702L55.4554 194.307C63.4286 182.473 79.3178 179.093 91.3786 186.455ZM42.2476 261.538C30.0774 253.339 26.8473 236.766 35.0471 224.596L53.6716 196.954C58.1987 204.946 64.5767 211.843 72.2475 217.011C79.9192 222.18 88.707 225.502 97.8137 226.696L79.1896 254.338C70.9897 266.508 54.4178 269.738 42.2476 261.538Z" fill="#E0E0E0" fill-opacity="0.1"/>
</g>
<path d="M374 42.1816C344.081 24.5628 274.622 -7.88236 236.141 3.28729C188.039 17.2493 208.867 36.1979 197.957 52.6531C187.047 69.1084 153.822 63.6233 141.921 85.0651C132.399 102.218 137.953 133.101 141.921 146.398C143.805 155.443 144.201 174.229 130.713 177.022C117.224 179.814 101.951 183.504 96 185" stroke="#E0E0E0" stroke-opacity="0.1"/>
<defs>
<clipPath id="clip0_78_151">
<rect width="97" height="97" fill="white" transform="translate(54.2007 157) rotate(33.9708)"/>
</clipPath>
</defs>
</svg>
