<svg width="96" height="36" viewBox="0 0 96 36" fill="none" xmlns="http://www.w3.org/2000/svg">
<path d="M16.5909 0.0909081H20.8182V25.0455C20.8182 27.2727 20.4091 29.1648 19.5909 30.7216C18.7727 32.2784 17.6193 33.4602 16.1307 34.267C14.642 35.0739 12.8864 35.4773 10.8636 35.4773C8.95455 35.4773 7.25568 35.1307 5.76705 34.4375C4.27841 33.733 3.10795 32.733 2.25568 31.4375C1.40341 30.142 0.977273 28.6023 0.977273 26.8182H5.13636C5.13636 27.8068 5.38068 28.6705 5.86932 29.4091C6.36932 30.1364 7.05114 30.7045 7.91477 31.1136C8.77841 31.5227 9.76136 31.7273 10.8636 31.7273C12.0795 31.7273 13.1136 31.4716 13.9659 30.9602C14.8182 30.4489 15.4659 29.6989 15.9091 28.7102C16.3636 27.7102 16.5909 26.4886 16.5909 25.0455V0.0909081ZM36.4489 35.6136C34.7898 35.6136 33.2841 35.3011 31.9318 34.6761C30.5795 34.0398 29.5057 33.125 28.7102 31.9318C27.9148 30.7273 27.517 29.2727 27.517 27.5682C27.517 26.0682 27.8125 24.8523 28.4034 23.9205C28.9943 22.9773 29.7841 22.2386 30.7727 21.7045C31.7614 21.1705 32.8523 20.7727 34.0455 20.5114C35.25 20.2386 36.4602 20.0227 37.6761 19.8636C39.267 19.6591 40.5568 19.5057 41.5455 19.4034C42.5455 19.2898 43.2727 19.1023 43.7273 18.8409C44.1932 18.5795 44.4261 18.125 44.4261 17.4773V17.3409C44.4261 15.6591 43.9659 14.3523 43.0455 13.4205C42.1364 12.4886 40.7557 12.0227 38.9034 12.0227C36.983 12.0227 35.4773 12.4432 34.3864 13.2841C33.2955 14.125 32.5284 15.0227 32.0852 15.9773L28.267 14.6136C28.9489 13.0227 29.858 11.7841 30.9943 10.8977C32.142 10 33.392 9.375 34.7443 9.02273C36.108 8.65909 37.4489 8.47727 38.767 8.47727C39.608 8.47727 40.5739 8.57955 41.6648 8.78409C42.767 8.97727 43.8295 9.38068 44.8523 9.99432C45.8864 10.608 46.7443 11.5341 47.4261 12.7727C48.108 14.0114 48.4489 15.6705 48.4489 17.75V35H44.4261V31.4545H44.2216C43.9489 32.0227 43.4943 32.6307 42.858 33.2784C42.2216 33.9261 41.375 34.4773 40.3182 34.9318C39.2614 35.3864 37.9716 35.6136 36.4489 35.6136ZM37.0625 32C38.6534 32 39.9943 31.6875 41.0852 31.0625C42.1875 30.4375 43.017 29.6307 43.5739 28.642C44.142 27.6534 44.4261 26.6136 44.4261 25.5227V21.8409C44.2557 22.0455 43.8807 22.233 43.3011 22.4034C42.733 22.5625 42.0739 22.7045 41.3239 22.8295C40.5852 22.9432 39.8636 23.0455 39.1591 23.1364C38.4659 23.2159 37.9034 23.2841 37.4716 23.3409C36.4261 23.4773 35.4489 23.6989 34.5398 24.0057C33.642 24.3011 32.9148 24.75 32.358 25.3523C31.8125 25.9432 31.5398 26.75 31.5398 27.7727C31.5398 29.1705 32.0568 30.2273 33.0909 30.9432C34.1364 31.6477 35.4602 32 37.0625 32ZM55.7912 35V8.81818H59.6776V12.7727H59.9503C60.4276 11.4773 61.2912 10.4261 62.5412 9.61932C63.7912 8.8125 65.2003 8.40909 66.7685 8.40909C67.0639 8.40909 67.4332 8.41477 67.8764 8.42614C68.3196 8.4375 68.6548 8.45455 68.8821 8.47727V12.5682C68.7457 12.5341 68.4332 12.483 67.9446 12.4148C67.4673 12.3352 66.9616 12.2955 66.4276 12.2955C65.1548 12.2955 64.0185 12.5625 63.0185 13.0966C62.0298 13.6193 61.2457 14.3466 60.6662 15.2784C60.098 16.1989 59.8139 17.25 59.8139 18.4318V35H55.7912ZM83.4901 35.5455C81.1264 35.5455 79.0526 34.983 77.2685 33.858C75.4957 32.733 74.1094 31.1591 73.1094 29.1364C72.1207 27.1136 71.6264 24.75 71.6264 22.0455C71.6264 19.3182 72.1207 16.9375 73.1094 14.9034C74.1094 12.8693 75.4957 11.2898 77.2685 10.1648C79.0526 9.03977 81.1264 8.47727 83.4901 8.47727C85.8537 8.47727 87.9219 9.03977 89.6946 10.1648C91.4787 11.2898 92.8651 12.8693 93.8537 14.9034C94.8537 16.9375 95.3537 19.3182 95.3537 22.0455C95.3537 24.75 94.8537 27.1136 93.8537 29.1364C92.8651 31.1591 91.4787 32.733 89.6946 33.858C87.9219 34.983 85.8537 35.5455 83.4901 35.5455ZM83.4901 31.9318C85.2855 31.9318 86.7628 31.4716 87.9219 30.5511C89.081 29.6307 89.9389 28.4205 90.4957 26.9205C91.0526 25.4205 91.331 23.7955 91.331 22.0455C91.331 20.2955 91.0526 18.6648 90.4957 17.1534C89.9389 15.642 89.081 14.4205 87.9219 13.4886C86.7628 12.5568 85.2855 12.0909 83.4901 12.0909C81.6946 12.0909 80.2173 12.5568 79.0582 13.4886C77.8991 14.4205 77.0412 15.642 76.4844 17.1534C75.9276 18.6648 75.6491 20.2955 75.6491 22.0455C75.6491 23.7955 75.9276 25.4205 76.4844 26.9205C77.0412 28.4205 77.8991 29.6307 79.0582 30.5511C80.2173 31.4716 81.6946 31.9318 83.4901 31.9318Z" fill="white"/>
</svg>
